Atma-Light.ufo
<glyph name="ampersand" format="1">
  <advance width="782"/>
  <unicode hex="0026"/>
  <outline>
    <contour>
      <point x="705" y="-13" type="line"/>
      <point x="533" y="56"/>
      <point x="445" y="118"/>
      <point x="348" y="251" type="curve" smooth="yes"/>
      <point x="291" y="330"/>
      <point x="256" y="447"/>
      <point x="256" y="528" type="curve" smooth="yes"/>
      <point x="256" y="631"/>
      <point x="296" y="679"/>
      <point x="341" y="679" type="curve" smooth="yes"/>
      <point x="386" y="679"/>
      <point x="408" y="647"/>
      <point x="408" y="581" type="curve" smooth="yes"/>
      <point x="408" y="513"/>
      <point x="361" y="446"/>
      <point x="254" y="425" type="curve"/>
      <point x="261" y="383" type="line"/>
      <point x="399" y="422"/>
      <point x="463" y="496"/>
      <point x="463" y="586" type="curve" smooth="yes"/>
      <point x="463" y="675"/>
      <point x="412" y="721"/>
      <point x="347" y="721" type="curve" smooth="yes"/>
      <point x="242" y="721"/>
      <point x="201" y="637"/>
      <point x="201" y="529" type="curve" smooth="yes"/>
      <point x="201" y="268"/>
      <point x="413" y="38"/>
      <point x="665" y="-51" type="curve"/>
    </contour>
    <contour>
      <point x="611" y="383" type="curve"/>
      <point x="582" y="390"/>
      <point x="555" y="390"/>
      <point x="528" y="383" type="curve"/>
      <point x="536" y="350"/>
      <point x="539" y="319"/>
      <point x="539" y="279" type="curve" smooth="yes"/>
      <point x="539" y="105"/>
      <point x="443" y="-10"/>
      <point x="290" y="-10" type="curve" smooth="yes"/>
      <point x="161" y="-10"/>
      <point x="76" y="65"/>
      <point x="76" y="199" type="curve" smooth="yes"/>
      <point x="76" y="320"/>
      <point x="167" y="381"/>
      <point x="272" y="385" type="curve"/>
      <point x="267" y="429" type="line"/>
      <point x="103" y="399"/>
      <point x="21" y="319"/>
      <point x="21" y="195" type="curve" smooth="yes"/>
      <point x="21" y="55"/>
      <point x="113" y="-54"/>
      <point x="291" y="-54" type="curve" smooth="yes"/>
      <point x="482" y="-54"/>
      <point x="597" y="75"/>
    </contour>
  </outline>
</glyph>
<glyph name="parenright" format="1">
  <advance width="336"/>
  <unicode hex="0029"/>
  <outline>
    <contour>
      <point x="256" y="322" type="curve" smooth="yes"/>
      <point x="256" y="167"/>
      <point x="193" y="-12"/>
      <point x="10" y="-124" type="curve"/>
      <point x="23" y="-138"/>
      <point x="36" y="-152"/>
      <point x="52" y="-160" type="curve"/>
      <point x="224" y="-45"/>
      <point x="311" y="132"/>
      <point x="311" y="328" type="curve" smooth="yes"/>
      <point x="311" y="523"/>
      <point x="228" y="692"/>
      <point x="76" y="798" type="curve"/>
      <point x="60" y="790"/>
      <point x="47" y="776"/>
      <point x="34" y="762" type="curve"/>
      <point x="181" y="670"/>
      <point x="256" y="506"/>
    </contour>
  </outline>
</glyph>
<glyph name="comma" format="1">
  <advance width="94"/>
  <unicode hex="002C"/>
  <outline>
    <contour>
      <point x="82" y="68" type="curve"/>
      <point x="63" y="70"/>
      <point x="45" y="71"/>
      <point x="27" y="70" type="curve"/>
      <point x="23" y="-23"/>
      <point x="12" y="-102"/>
      <point x="-15" y="-210" type="curve"/>
      <point x="-1" y="-215"/>
      <point x="11" y="-218"/>
      <point x="23" y="-220" type="curve"/>
      <point x="64" y="-105"/>
      <point x="80" y="-22"/>
    </contour>
  </outline>
</glyph>
<glyph name="hyphen" format="1">
  <advance width="224"/>
  <unicode hex="002D"/>
  <outline>
    <contour>
      <point x="10" y="301"/>
      <point x="10.0" y="286.611111111"/>
      <point x="10" y="266" type="curve"/>
      <point x="55" y="255"/>
      <point x="123" y="252"/>
      <point x="211" y="260" type="curve"/>
      <point x="214" y="282"/>
      <point x="214.0" y="299.0"/>
      <point x="214" y="313" type="curve"/>
      <point x="193" y="310"/>
      <point x="167" y="309"/>
      <point x="139" y="309" type="curve" smooth="yes"/>
      <point x="95.204379562" y="309.0"/>
      <point x="47.1665947888" y="312.969710038"/>
      <point x="14" y="319" type="curve"/>
    </contour>
  </outline>
</glyph>
<glyph name="period" format="1">
  <advance width="119"/>
  <unicode hex="002E"/>
  <outline>
    <contour>
      <point x="97" y="25"/>
      <point x="98" y="45"/>
      <point x="99" y="69" type="curve"/>
      <point x="66" y="74"/>
      <point x="39" y="70"/>
      <point x="20" y="66" type="curve"/>
      <point x="20" y="42"/>
      <point x="22" y="27"/>
      <point x="23" y="1" type="curve"/>
      <point x="46" y="-2"/>
      <point x="66" y="-2"/>
      <point x="93" y="1" type="curve"/>
    </contour>
  </outline>
</glyph>
<glyph name="zero" format="1">
  <advance width="490"/>
  <unicode hex="0030"/>
  <outline>
    <contour>
      <point x="272" y="673" type="curve"/>
      <point x="132" y="673"/>
      <point x="40" y="551"/>
      <point x="40" y="313" type="curve"/>
      <point x="40" y="127"/>
      <point x="117" y="-20"/>
      <point x="241" y="-20" type="curve" smooth="yes"/>
      <point x="370" y="-20"/>
      <point x="450" y="112"/>
      <point x="450" y="387" type="curve"/>
      <point x="450" y="550"/>
      <point x="390" y="673"/>
    </contour>
    <contour>
      <point x="258" y="629" type="curve" smooth="yes"/>
      <point x="356" y="629"/>
      <point x="395" y="531"/>
      <point x="395" y="347" type="curve" smooth="yes"/>
      <point x="395" y="143"/>
      <point x="335" y="24"/>
      <point x="247" y="24" type="curve" smooth="yes"/>
      <point x="155" y="24"/>
      <point x="95" y="144"/>
      <point x="95" y="321" type="curve" smooth="yes"/>
      <point x="95" y="517"/>
      <point x="166" y="629"/>
    </contour>
  </outline>
</glyph>
<glyph name="one" format="1">
  <advance width="303"/>
  <unicode hex="0031"/>
  <outline>
    <contour>
      <point x="184" y="-38" type="curve"/>
      <point x="203" y="188"/>
      <point x="247" y="514"/>
      <point x="308" y="670" type="curve"/>
      <point x="278" y="670" type="line"/>
      <point x="254" y="670" type="line"/>
      <point x="210" y="529"/>
      <point x="180" y="355"/>
      <point x="162" y="205" type="curve" smooth="yes"/>
      <point x="149" y="105"/>
      <point x="144" y="46"/>
      <point x="139" y="-44" type="curve"/>
      <point x="148" y="-44"/>
      <point x="157" y="-44"/>
      <point x="165" y="-43" type="curve" smooth="yes"/>
      <point x="172" y="-42"/>
      <point x="179" y="-40"/>
    </contour>
    <contour>
      <point x="276" y="693" type="curve"/>
      <point x="189" y="605"/>
      <point x="90" y="538"/>
      <point x="5" y="488" type="curve"/>
      <point x="14" y="470"/>
      <point x="21" y="462"/>
      <point x="35" y="449" type="curve"/>
      <point x="165" y="531"/>
      <point x="242" y="595"/>
      <point x="308" y="670" type="curve"/>
      <point x="297" y="680"/>
      <point x="289" y="685"/>
    </contour>
  </outline>
</glyph>
<glyph name="two" format="1">
  <advance width="353"/>
  <unicode hex="0032"/>
  <outline>
    <contour>
      <point x="340" y="473" type="curve" smooth="yes"/>
      <point x="340" y="575"/>
      <point x="281" y="641"/>
      <point x="195" y="641" type="curve" smooth="yes"/>
      <point x="123" y="641"/>
      <point x="52" y="586"/>
      <point x="25" y="452" type="curve"/>
      <point x="43" y="444"/>
      <point x="61" y="439"/>
      <point x="77" y="439" type="curve"/>
      <point x="95" y="541"/>
      <point x="140" y="597"/>
      <point x="194" y="597" type="curve" smooth="yes"/>
      <point x="253" y="597"/>
      <point x="285" y="546"/>
      <point x="285" y="480" type="curve" smooth="yes"/>
      <point x="285" y="342"/>
      <point x="218" y="228"/>
      <point x="4" y="64" type="curve"/>
      <point x="-1" y="50"/>
      <point x="-4" y="35"/>
      <point x="-5" y="21" type="curve"/>
      <point x="84" y="-3"/>
      <point x="184" y="-18"/>
      <point x="333" y="-31" type="curve"/>
      <point x="341" y="-14"/>
      <point x="346" y="2"/>
      <point x="348" y="21" type="curve"/>
      <point x="207" y="23"/>
      <point x="127" y="33"/>
      <point x="33" y="52" type="curve"/>
      <point x="27" y="28" type="line"/>
      <point x="235" y="181"/>
      <point x="340" y="337"/>
    </contour>
  </outline>
</glyph>
<glyph name="three" format="1">
  <advance width="377"/>
  <unicode hex="0033"/>
  <outline>
    <contour>
      <point x="357" y="579" type="curve"/>
      <point x="358" y="593"/>
      <point x="358" y="607"/>
      <point x="356" y="620" type="curve"/>
      <point x="264" y="619"/>
      <point x="155" y="610"/>
      <point x="7" y="582" type="curve"/>
      <point x="4" y="564"/>
      <point x="4" y="547"/>
      <point x="8" y="528" type="curve"/>
      <point x="144" y="565"/>
      <point x="262" y="571"/>
    </contour>
    <contour>
      <point x="209" y="-57" type="curve" smooth="yes"/>
      <point x="305" y="-57"/>
      <point x="377" y="21"/>
      <point x="377" y="154" type="curve" smooth="yes"/>
      <point x="377" y="282"/>
      <point x="299" y="360"/>
      <point x="160" y="378" type="curve"/>
      <point x="138" y="346" type="line"/>
      <point x="256" y="429"/>
      <point x="312" y="494"/>
      <point x="357" y="579" type="curve"/>
      <point x="319" y="595" type="line"/>
      <point x="268" y="508"/>
      <point x="206" y="438"/>
      <point x="98" y="370" type="curve"/>
      <point x="98" y="359"/>
      <point x="100" y="347"/>
      <point x="102" y="334" type="curve"/>
      <point x="247" y="347"/>
      <point x="322" y="269"/>
      <point x="322" y="138" type="curve" smooth="yes"/>
      <point x="322" y="43"/>
      <point x="279" y="-12"/>
      <point x="208" y="-12" type="curve" smooth="yes"/>
      <point x="141" y="-12"/>
      <point x="85" y="46"/>
      <point x="85" y="185" type="curve"/>
      <point x="66" y="183"/>
      <point x="49" y="180"/>
      <point x="32" y="174" type="curve"/>
      <point x="40" y="17"/>
      <point x="119" y="-57"/>
    </contour>
  </outline>
</glyph>
<glyph name="five" format="1">
  <advance width="379"/>
  <unicode hex="0035"/>
  <outline>
    <contour>
      <point x="183" y="-37" type="curve" smooth="yes"/>
      <point x="279" y="-37"/>
      <point x="348" y="50"/>
      <point x="348" y="183" type="curve" smooth="yes"/>
      <point x="348" y="321"/>
      <point x="279" y="398"/>
      <point x="174" y="398" type="curve" smooth="yes"/>
      <point x="148" y="398"/>
      <point x="121" y="393"/>
      <point x="100" y="383" type="curve"/>
      <point x="96" y="456"/>
      <point x="104" y="546"/>
      <point x="122" y="639" type="curve"/>
      <point x="93" y="610" type="line"/>
      <point x="184" y="589"/>
      <point x="250" y="578"/>
      <point x="368" y="566" type="curve"/>
      <point x="376" y="583"/>
      <point x="382" y="602"/>
      <point x="384" y="621" type="curve"/>
      <point x="258" y="624"/>
      <point x="187" y="635"/>
      <point x="75" y="660" type="curve"/>
      <point x="64" y="609"/>
      <point x="54" y="524"/>
      <point x="54" y="438" type="curve" smooth="yes"/>
      <point x="54" y="412"/>
      <point x="55" y="391"/>
      <point x="57" y="365" type="curve"/>
      <point x="83" y="338" type="line"/>
      <point x="106" y="350"/>
      <point x="131" y="355"/>
      <point x="155" y="355" type="curve" smooth="yes"/>
      <point x="250" y="355"/>
      <point x="293" y="277"/>
      <point x="293" y="178" type="curve" smooth="yes"/>
      <point x="293" y="66"/>
      <point x="253" y="8"/>
      <point x="182" y="8" type="curve" smooth="yes"/>
      <point x="115" y="8"/>
      <point x="59" y="54"/>
      <point x="59" y="193" type="curve"/>
      <point x="38" y="195"/>
      <point x="18" y="198"/>
      <point x="5" y="198" type="curve"/>
      <point x="13" y="59"/>
      <point x="71" y="-37"/>
    </contour>
  </outline>
</glyph>
<glyph name="six" format="1">
  <advance width="447"/>
  <unicode hex="0036"/>
  <outline>
    <contour>
      <point x="260" y="647" type="curve" smooth="yes"/>
      <point x="172" y="647"/>
      <point x="95" y="527"/>
      <point x="95" y="302" type="curve" smooth="yes"/>
      <point x="95" y="115"/>
      <point x="150" y="-6"/>
      <point x="239" y="-6" type="curve" smooth="yes"/>
      <point x="316" y="-6"/>
      <point x="367" y="76"/>
      <point x="367" y="164" type="curve" smooth="yes"/>
      <point x="367" y="269"/>
      <point x="322" y="334"/>
      <point x="245" y="334" type="curve" smooth="yes"/>
      <point x="178" y="334"/>
      <point x="123" y="267"/>
      <point x="97" y="169" type="curve"/>
      <point x="78" y="223" type="line"/>
      <point x="105" y="306"/>
      <point x="161" y="378"/>
      <point x="255" y="378" type="curve" smooth="yes"/>
      <point x="362" y="378"/>
      <point x="422" y="289"/>
      <point x="422" y="191" type="curve" smooth="yes"/>
      <point x="422" y="56"/>
      <point x="355" y="-50"/>
      <point x="233" y="-50" type="curve" smooth="yes"/>
      <point x="115" y="-50"/>
      <point x="40" y="81"/>
      <point x="40" y="293" type="curve" smooth="yes"/>
      <point x="40" y="547"/>
      <point x="125" y="691"/>
      <point x="267" y="691" type="curve" smooth="yes"/>
      <point x="351" y="691"/>
      <point x="401" y="635"/>
      <point x="419" y="505" type="curve"/>
      <point x="401" y="497"/>
      <point x="385" y="492"/>
      <point x="365" y="488" type="curve"/>
      <point x="355" y="594"/>
      <point x="323" y="647"/>
    </contour>
  </outline>
</glyph>
<glyph name="seven" format="1">
  <advance width="433"/>
  <unicode hex="0037"/>
  <outline>
    <contour>
      <point x="59" y="-55" type="curve"/>
      <point x="182" y="212"/>
      <point x="261" y="343"/>
      <point x="423" y="534" type="curve"/>
      <point x="419" y="547"/>
      <point x="414" y="559"/>
      <point x="406" y="572" type="curve"/>
      <point x="250" y="582"/>
      <point x="166" y="598"/>
      <point x="19" y="638" type="curve"/>
      <point x="13" y="623"/>
      <point x="8" y="606"/>
      <point x="6" y="589" type="curve"/>
      <point x="147" y="553"/>
      <point x="235" y="541"/>
      <point x="391" y="529" type="curve"/>
      <point x="392" y="566" type="line"/>
      <point x="245" y="398"/>
      <point x="132" y="214"/>
      <point x="5" y="-39" type="curve"/>
      <point x="24" y="-48"/>
      <point x="40" y="-52"/>
    </contour>
  </outline>
</glyph>
<glyph name="eight" format="1">
  <advance width="423"/>
  <unicode hex="0038"/>
  <outline>
    <contour>
      <point x="393" y="225" type="curve" smooth="yes"/>
      <point x="393" y="318"/>
      <point x="314" y="391"/>
      <point x="232" y="391" type="curve" smooth="yes"/>
      <point x="107" y="391"/>
      <point x="35" y="281"/>
      <point x="35" y="170" type="curve" smooth="yes"/>
      <point x="35" y="70"/>
      <point x="106" y="-6"/>
      <point x="199" y="-6" type="curve" smooth="yes"/>
      <point x="311" y="-6"/>
      <point x="393" y="90"/>
    </contour>
    <contour>
      <point x="338" y="216" type="curve" smooth="yes"/>
      <point x="338" y="113"/>
      <point x="281" y="38"/>
      <point x="205" y="38" type="curve" smooth="yes"/>
      <point x="142" y="38"/>
      <point x="90" y="83"/>
      <point x="90" y="181" type="curve" smooth="yes"/>
      <point x="90" y="286"/>
      <point x="157" y="347"/>
      <point x="219" y="347" type="curve" smooth="yes"/>
      <point x="296" y="347"/>
      <point x="338" y="286"/>
    </contour>
    <contour>
      <point x="323" y="536" type="curve" smooth="yes"/>
      <point x="323" y="450"/>
      <point x="279" y="390"/>
      <point x="212" y="390" type="curve" smooth="yes"/>
      <point x="135" y="390"/>
      <point x="100" y="455"/>
      <point x="100" y="526" type="curve" smooth="yes"/>
      <point x="100" y="609"/>
      <point x="144" y="679"/>
      <point x="213" y="679" type="curve" smooth="yes"/>
      <point x="276" y="679"/>
      <point x="323" y="635"/>
    </contour>
    <contour>
      <point x="378" y="560" type="curve" smooth="yes"/>
      <point x="378" y="655"/>
      <point x="307" y="723"/>
      <point x="221" y="723" type="curve" smooth="yes"/>
      <point x="114" y="723"/>
      <point x="45" y="646"/>
      <point x="45" y="520" type="curve" smooth="yes"/>
      <point x="45" y="420"/>
      <point x="116" y="346"/>
      <point x="189" y="346" type="curve" smooth="yes"/>
      <point x="304" y="346"/>
      <point x="378" y="420"/>
    </contour>
  </outline>
</glyph>
<glyph name="nine" format="1">
  <advance width="465"/>
  <unicode hex="0039"/>
  <outline>
    <contour>
      <point x="186" y="13" type="curve"/>
      <point x="288" y="13"/>
      <point x="370" y="171"/>
      <point x="370" y="373" type="curve" smooth="yes"/>
      <point x="370" y="560"/>
      <point x="315" y="667"/>
      <point x="226" y="667" type="curve" smooth="yes"/>
      <point x="155" y="667"/>
      <point x="98" y="590"/>
      <point x="98" y="480" type="curve" smooth="yes"/>
      <point x="98" y="366"/>
      <point x="149" y="311"/>
      <point x="220" y="311" type="curve" smooth="yes"/>
      <point x="292" y="311"/>
      <point x="351" y="382"/>
      <point x="368" y="492" type="curve"/>
      <point x="400" y="435" type="line"/>
      <point x="366" y="329"/>
      <point x="295" y="267"/>
      <point x="210" y="267" type="curve" smooth="yes"/>
      <point x="115" y="267"/>
      <point x="43" y="354"/>
      <point x="43" y="466" type="curve" smooth="yes"/>
      <point x="43" y="612"/>
      <point x="125" y="711"/>
      <point x="228" y="711" type="curve" smooth="yes"/>
      <point x="346" y="711"/>
      <point x="425" y="595"/>
      <point x="425" y="382" type="curve" smooth="yes"/>
      <point x="425" y="155"/>
      <point x="323" y="-31"/>
      <point x="178" y="-31" type="curve" smooth="yes"/>
      <point x="111" y="-31"/>
      <point x="66" y="5"/>
      <point x="30" y="55" type="curve"/>
      <point x="40" y="72"/>
      <point x="50" y="86"/>
      <point x="64" y="101" type="curve"/>
      <point x="92" y="45"/>
      <point x="130" y="13"/>
    </contour>
  </outline>
</glyph>
<glyph name="semicolon" format="1">
  <advance width="119"/>
  <unicode hex="003B"/>
  <outline>
    <contour>
      <point x="97" y="500"/>
      <point x="98" y="520"/>
      <point x="99" y="544" type="curve"/>
      <point x="88" y="546"/>
      <point x="78" y="546"/>
      <point x="68" y="546" type="curve" smooth="yes"/>
      <point x="49" y="546"/>
      <point x="33" y="544"/>
      <point x="20" y="541" type="curve"/>
      <point x="20" y="517"/>
      <point x="22" y="502"/>
      <point x="23" y="476" type="curve"/>
      <point x="46" y="473"/>
      <point x="66" y="473"/>
      <point x="93" y="476" type="curve"/>
    </contour>
    <contour>
      <point x="84" y="68" type="curve"/>
      <point x="65" y="70"/>
      <point x="45" y="71"/>
      <point x="27" y="70" type="curve"/>
      <point x="27" y="-15"/>
      <point x="17" y="-84"/>
      <point x="-15" y="-210" type="curve"/>
      <point x="-1" y="-215"/>
      <point x="8" y="-218"/>
      <point x="20" y="-220" type="curve"/>
      <point x="68" y="-107"/>
      <point x="86" y="-23"/>
    </contour>
  </outline>
</glyph>
<glyph name="at" format="1">
  <advance width="875"/>
  <unicode hex="0040"/>
  <outline>
    <contour>
      <point x="529" y="461" type="curve"/>
      <point x="537" y="502" type="line"/>
      <point x="522" y="512"/>
      <point x="472" y="533"/>
      <point x="428" y="533" type="curve" smooth="yes"/>
      <point x="329" y="533"/>
      <point x="254" y="445"/>
      <point x="254" y="295" type="curve" smooth="yes"/>
      <point x="254" y="172"/>
      <point x="312" y="96"/>
      <point x="388" y="96" type="curve" smooth="yes"/>
      <point x="469" y="96"/>
      <point x="522" y="167"/>
      <point x="534" y="383" type="curve"/>
      <point x="509" y="407" type="line"/>
      <point x="502" y="203"/>
      <point x="449" y="140"/>
      <point x="390" y="140" type="curve" smooth="yes"/>
      <point x="342" y="140"/>
      <point x="309" y="196"/>
      <point x="309" y="304" type="curve" smooth="yes"/>
      <point x="309" y="422"/>
      <point x="366" y="489"/>
      <point x="436" y="489" type="curve" smooth="yes"/>
      <point x="484" y="489"/>
      <point x="507" y="473"/>
    </contour>
    <contour>
      <point x="805" y="365" type="curve" smooth="yes"/>
      <point x="805" y="543"/>
      <point x="701" y="718"/>
      <point x="446" y="718" type="curve" smooth="yes"/>
      <point x="201" y="718"/>
      <point x="45" y="547"/>
      <point x="45" y="277" type="curve" smooth="yes"/>
      <point x="45" y="51"/>
      <point x="198" y="-93"/>
      <point x="411" y="-93" type="curve" smooth="yes"/>
      <point x="494" y="-93"/>
      <point x="549.662384099" y="-79.1688079503"/>
      <point x="640" y="-34" type="curve"/>
      <point x="630" y="-15"/>
      <point x="622" y="-6"/>
      <point x="606" y="9" type="curve"/>
      <point x="553.888424517" y="-28.806437115"/>
      <point x="496" y="-49"/>
      <point x="419" y="-49" type="curve" smooth="yes"/>
      <point x="227" y="-49"/>
      <point x="100" y="62"/>
      <point x="100" y="290" type="curve" smooth="yes"/>
      <point x="100" y="523"/>
      <point x="240" y="674"/>
      <point x="434" y="674" type="curve" smooth="yes"/>
      <point x="647" y="674"/>
      <point x="750" y="532"/>
      <point x="750" y="367" type="curve" smooth="yes"/>
      <point x="750" y="217"/>
      <point x="698" y="129"/>
      <point x="630" y="129" type="curve" smooth="yes"/>
      <point x="568" y="129"/>
      <point x="540" y="179"/>
      <point x="540" y="312" type="curve" smooth="yes"/>
      <point x="540" y="372"/>
      <point x="543" y="442"/>
      <point x="551" y="554" type="curve"/>
      <point x="525" y="560"/>
      <point x="502" y="556"/>
      <point x="488" y="550" type="curve"/>
      <point x="488" y="457"/>
      <point x="491" y="324"/>
      <point x="491" y="259" type="curve" smooth="yes"/>
      <point x="491" y="141"/>
      <point x="544" y="85"/>
      <point x="629" y="85" type="curve" smooth="yes"/>
      <point x="727" y="85"/>
      <point x="805" y="190"/>
    </contour>
  </outline>
</glyph>
<glyph name="A" format="1">
  <advance width="614"/>
  <unicode hex="0041"/>
  <outline>
    <contour>
      <point x="584" y="-85" type="curve"/>
      <point x="533" y="266"/>
      <point x="468" y="453"/>
      <point x="345" y="698" type="curve"/>
      <point x="325" y="702"/>
      <point x="308" y="703"/>
      <point x="282" y="705" type="curve"/>
      <point x="224" y="439"/>
      <point x="167" y="254"/>
      <point x="27" y="8" type="curve"/>
      <point x="40" y="-3"/>
      <point x="53" y="-14"/>
      <point x="79" y="-20" type="curve"/>
      <point x="210" y="232"/>
      <point x="268" y="410"/>
      <point x="323" y="669" type="curve"/>
      <point x="294" y="678" type="line"/>
      <point x="411" y="454"/>
      <point x="471" y="277"/>
      <point x="528" y="-103" type="curve"/>
      <point x="550" y="-99"/>
      <point x="565" y="-95"/>
    </contour>
    <contour>
      <point x="491" y="233" type="curve"/>
      <point x="484" y="280" type="line"/>
      <point x="379" y="280"/>
      <point x="257" y="272"/>
      <point x="159" y="253" type="curve"/>
      <point x="161" y="210" type="line"/>
      <point x="251" y="228"/>
      <point x="371" y="236"/>
    </contour>
  </outline>
</glyph>
<glyph name="B" format="1">
  <advance width="572"/>
  <unicode hex="0042"/>
  <outline>
    <contour>
      <point x="130" y="7" type="curve"/>
      <point x="123" y="88"/>
      <point x="120" y="152"/>
      <point x="120" y="265" type="curve" smooth="yes"/>
      <point x="120" y="378"/>
      <point x="114" y="527"/>
      <point x="129" y="708" type="curve"/>
      <point x="127" y="708"/>
      <point x="65" y="706"/>
      <point x="63" y="705" type="curve"/>
      <point x="63" y="635"/>
      <point x="64" y="586"/>
      <point x="64" y="538" type="curve" smooth="yes"/>
      <point x="64" y="371"/>
      <point x="67" y="256"/>
      <point x="76" y="12" type="curve"/>
      <point x="78" y="12"/>
      <point x="128" y="7"/>
    </contour>
    <contour>
      <point x="461" y="577" type="curve" smooth="yes"/>
      <point x="461" y="677"/>
      <point x="379" y="740"/>
      <point x="232" y="740" type="curve"/>
      <point x="174" y="740"/>
      <point x="116" y="729"/>
      <point x="63" y="705" type="curve"/>
      <point x="63" y="704"/>
      <point x="83" y="662"/>
      <point x="84" y="661" type="curve"/>
      <point x="124" y="684"/>
      <point x="178" y="696"/>
      <point x="239" y="696" type="curve" smooth="yes"/>
      <point x="350" y="696"/>
      <point x="401" y="645"/>
      <point x="401" y="572" type="curve" smooth="yes"/>
      <point x="401" y="478"/>
      <point x="332" y="419"/>
      <point x="108" y="402" type="curve"/>
      <point x="121" y="367" type="line"/>
      <point x="419" y="394"/>
      <point x="461" y="504"/>
    </contour>
    <contour>
      <point x="511" y="258" type="curve" smooth="yes"/>
      <point x="511" y="361"/>
      <point x="433" y="420"/>
      <point x="282" y="420" type="curve" smooth="yes"/>
      <point x="232" y="420"/>
      <point x="161" y="402"/>
      <point x="108" y="392" type="curve"/>
      <point x="108" y="348" type="line"/>
      <point x="139" y="362"/>
      <point x="221" y="382"/>
      <point x="286" y="382" type="curve" smooth="yes"/>
      <point x="410" y="382"/>
      <point x="451" y="326"/>
      <point x="451" y="243" type="curve" smooth="yes"/>
      <point x="451" y="129"/>
      <point x="346" y="25"/>
      <point x="210" y="25" type="curve" smooth="yes"/>
      <point x="165" y="25"/>
      <point x="119" y="40"/>
      <point x="89" y="65" type="curve"/>
      <point x="76" y="12" type="line"/>
      <point x="103" y="-6"/>
      <point x="152" y="-20"/>
      <point x="201" y="-20" type="curve" smooth="yes"/>
      <point x="378" y="-20"/>
      <point x="511" y="108"/>
    </contour>
  </outline>
</glyph>
<glyph name="C" format="1">
  <advance width="513"/>
  <unicode hex="0043"/>
  <outline>
    <contour>
      <point x="464" y="210" type="curve"/>
      <point x="445" y="218"/>
      <point x="434" y="220"/>
      <point x="414" y="220" type="curve"/>
      <point x="417" y="95"/>
      <point x="363" y="12"/>
      <point x="265" y="12" type="curve" smooth="yes"/>
      <point x="159" y="12"/>
      <point x="100" y="112"/>
      <point x="100" y="296" type="curve" smooth="yes"/>
      <point x="100" y="532"/>
      <point x="201" y="646"/>
      <point x="294" y="646" type="curve"/>
      <point x="382" y="646"/>
      <point x="413" y="590"/>
      <point x="403" y="450" type="curve"/>
      <point x="422" y="449"/>
      <point x="448" y="453"/>
      <point x="462" y="464" type="curve"/>
      <point x="468" y="616"/>
      <point x="421" y="693"/>
      <point x="304" y="693" type="curve"/>
      <point x="147" y="693"/>
      <point x="40" y="531"/>
      <point x="40" y="285" type="curve" smooth="yes"/>
      <point x="40" y="78"/>
      <point x="122" y="-35"/>
      <point x="262" y="-35" type="curve" smooth="yes"/>
      <point x="387" y="-35"/>
      <point x="456" y="50"/>
    </contour>
  </outline>
</glyph>
<glyph name="D" format="1">
  <advance width="550"/>
  <unicode hex="0044"/>
  <outline>
    <contour>
      <point x="123" y="-12" type="curve"/>
      <point x="119" y="68"/>
      <point x="117" y="132"/>
      <point x="117" y="236" type="curve" smooth="yes"/>
      <point x="117" y="390"/>
      <point x="115" y="474"/>
      <point x="127" y="675" type="curve"/>
      <point x="125" y="676"/>
      <point x="66" y="679"/>
      <point x="63" y="678" type="curve"/>
      <point x="61" y="627"/>
      <point x="60" y="558"/>
      <point x="60" y="508" type="curve" smooth="yes"/>
      <point x="60" y="346"/>
      <point x="63" y="205"/>
      <point x="73" y="-5" type="curve"/>
      <point x="75" y="-5"/>
      <point x="122" y="-12"/>
    </contour>
    <contour>
      <point x="514" y="445" type="curve" smooth="yes"/>
      <point x="514" y="611"/>
      <point x="431" y="717"/>
      <point x="226" y="717" type="curve" smooth="yes"/>
      <point x="166" y="717"/>
      <point x="114" y="702"/>
      <point x="63" y="678" type="curve"/>
      <point x="64" y="677"/>
      <point x="84" y="636"/>
      <point x="85" y="634" type="curve"/>
      <point x="123" y="658"/>
      <point x="168" y="670"/>
      <point x="226" y="670" type="curve" smooth="yes"/>
      <point x="386" y="670"/>
      <point x="453" y="582"/>
      <point x="453" y="448" type="curve" smooth="yes"/>
      <point x="453" y="263"/>
      <point x="347" y="109"/>
      <point x="88" y="23" type="curve"/>
      <point x="123" y="-12" type="line"/>
      <point x="368" y="67"/>
      <point x="514" y="243"/>
    </contour>
  </outline>
</glyph>
<glyph name="E" format="1">
  <advance width="499"/>
  <unicode hex="0045"/>
  <outline>
    <contour>
      <point x="465" y="-14" type="curve"/>
      <point x="467" y="-2"/>
      <point x="467" y="19"/>
      <point x="463" y="36" type="curve"/>
      <point x="367" y="15"/>
      <point x="289" y="8"/>
      <point x="175" y="4" type="curve"/>
      <point x="155" y="131"/>
      <point x="142" y="249"/>
      <point x="134" y="334" type="curve" smooth="yes"/>
      <point x="121" y="477"/>
      <point x="118" y="582"/>
      <point x="120" y="687" type="curve"/>
      <point x="60" y="693" type="line"/>
      <point x="63" y="510"/>
      <point x="87" y="234"/>
      <point x="128" y="-41" type="curve"/>
      <point x="232" y="-38"/>
      <point x="325" y="-33"/>
    </contour>
    <contour>
      <point x="396" y="367" type="curve"/>
      <point x="397" y="384"/>
      <point x="395" y="399"/>
      <point x="392" y="412" type="curve"/>
      <point x="286" y="402"/>
      <point x="209" y="388"/>
      <point x="114" y="373" type="curve"/>
      <point x="116" y="330" type="line"/>
      <point x="212" y="348"/>
      <point x="271" y="357"/>
    </contour>
    <contour>
      <point x="439" y="688" type="curve"/>
      <point x="442" y="703"/>
      <point x="443" y="718"/>
      <point x="442" y="735" type="curve"/>
      <point x="284" y="731"/>
      <point x="186" y="715"/>
      <point x="60" y="693" type="curve"/>
      <point x="82" y="650" type="line"/>
      <point x="190" y="672"/>
      <point x="301" y="687"/>
    </contour>
  </outline>
</glyph>
<glyph name="F" format="1">
  <advance width="502"/>
  <unicode hex="0046"/>
  <outline>
    <contour>
      <point x="400" y="400" type="curve"/>
      <point x="400" y="417"/>
      <point x="398" y="431"/>
      <point x="395" y="444" type="curve"/>
      <point x="304" y="439"/>
      <point x="221" y="428"/>
      <point x="140" y="413" type="curve"/>
      <point x="145" y="371" type="line"/>
      <point x="223" y="383"/>
      <point x="313" y="395"/>
    </contour>
    <contour>
      <point x="169" y="-74" type="curve"/>
      <point x="171" y="45"/>
      <point x="169" y="129"/>
      <point x="164" y="325" type="curve" smooth="yes"/>
      <point x="161" y="455"/>
      <point x="150" y="587"/>
      <point x="129" y="715" type="curve"/>
      <point x="125" y="715"/>
      <point x="73" y="723"/>
      <point x="71" y="723" type="curve"/>
      <point x="108" y="490"/>
      <point x="118" y="223"/>
      <point x="116" y="-77" type="curve"/>
      <point x="128" y="-78"/>
      <point x="152" y="-77"/>
    </contour>
    <contour>
      <point x="460" y="723" type="curve"/>
      <point x="461" y="733"/>
      <point x="461" y="741"/>
      <point x="459" y="751" type="curve" smooth="yes"/>
      <point x="458" y="758"/>
      <point x="455" y="767"/>
      <point x="452" y="774" type="curve"/>
      <point x="326" y="749"/>
      <point x="236" y="736"/>
      <point x="71" y="723" type="curve"/>
      <point x="71" y="722"/>
      <point x="115" y="681"/>
      <point x="115" y="679" type="curve"/>
      <point x="234" y="686"/>
      <point x="320" y="700"/>
    </contour>
  </outline>
</glyph>
<glyph name="G" format="1">
  <advance width="535"/>
  <unicode hex="0047"/>
  <outline>
    <contour>
      <point x="458" y="225" type="curve"/>
      <point x="414" y="246" type="line"/>
      <point x="385" y="103"/>
      <point x="324" y="27"/>
      <point x="239" y="27" type="curve" smooth="yes"/>
      <point x="161" y="27"/>
      <point x="100" y="121"/>
      <point x="100" y="323" type="curve" smooth="yes"/>
      <point x="100" y="532"/>
      <point x="176" y="677"/>
      <point x="275" y="677" type="curve" smooth="yes"/>
      <point x="351" y="677"/>
      <point x="394" y="611"/>
      <point x="395" y="478" type="curve"/>
      <point x="418" y="480"/>
      <point x="437" y="483"/>
      <point x="454" y="488" type="curve"/>
      <point x="456" y="621"/>
      <point x="402" y="724"/>
      <point x="290" y="724" type="curve" smooth="yes"/>
      <point x="136" y="724"/>
      <point x="40" y="551"/>
      <point x="40" y="306" type="curve" smooth="yes"/>
      <point x="40" y="95"/>
      <point x="120" y="-21"/>
      <point x="232" y="-21" type="curve" smooth="yes"/>
      <point x="348" y="-21"/>
      <point x="412" y="66"/>
    </contour>
    <contour>
      <point x="512" y="-23" type="curve"/>
      <point x="473" y="105"/>
      <point x="457" y="220"/>
      <point x="459" y="348" type="curve"/>
      <point x="437" y="348"/>
      <point x="412" y="345"/>
      <point x="392" y="341" type="curve"/>
      <point x="400" y="194"/>
      <point x="425" y="79"/>
      <point x="467" y="-29" type="curve"/>
      <point x="483" y="-28"/>
      <point x="501" y="-26"/>
    </contour>
  </outline>
</glyph>
<glyph name="I" format="1">
  <advance width="190"/>
  <unicode hex="0049"/>
  <outline>
    <contour>
      <point x="120" y="-22" type="curve"/>
      <point x="127" y="206"/>
      <point x="125" y="332"/>
      <point x="125" y="481" type="curve" smooth="yes"/>
      <point x="125" y="552"/>
      <point x="124" y="610"/>
      <point x="119" y="677" type="curve"/>
      <point x="113" y="678"/>
      <point x="107" y="679"/>
      <point x="99" y="679" type="curve" smooth="yes"/>
      <point x="84" y="679"/>
      <point x="71" y="676"/>
      <point x="58" y="670" type="curve"/>
      <point x="72" y="454"/>
      <point x="76" y="217"/>
      <point x="72" y="-28" type="curve"/>
      <point x="90" y="-27"/>
      <point x="110" y="-25"/>
    </contour>
  </outline>
</glyph>
<glyph name="J" format="1">
  <advance width="423"/>
  <unicode hex="004A"/>
  <outline>
    <contour>
      <point x="186" y="-88" type="curve" smooth="yes"/>
      <point x="254" y="-88"/>
      <point x="298" y="-38"/>
      <point x="323" y="43" type="curve" smooth="yes"/>
      <point x="345" y="117"/>
      <point x="351" y="214"/>
      <point x="351" y="322" type="curve" smooth="yes"/>
      <point x="351" y="453"/>
      <point x="339" y="596"/>
      <point x="325" y="725" type="curve"/>
      <point x="314" y="725"/>
      <point x="303" y="724"/>
      <point x="293" y="722" type="curve" smooth="yes"/>
      <point x="280" y="720"/>
      <point x="268" y="716"/>
      <point x="259" y="711" type="curve"/>
      <point x="279" y="533"/>
      <point x="291" y="392"/>
      <point x="291" y="232" type="curve" smooth="yes"/>
      <point x="291" y="39"/>
      <point x="253" y="-41"/>
      <point x="189" y="-41" type="curve" smooth="yes"/>
      <point x="133" y="-41"/>
      <point x="102" y="6"/>
      <point x="81" y="183" type="curve"/>
      <point x="60" y="178"/>
      <point x="43" y="173"/>
      <point x="27" y="164" type="curve"/>
      <point x="44" y="3"/>
      <point x="97" y="-88"/>
    </contour>
  </outline>
</glyph>
<glyph name="L" format="1">
  <advance width="473"/>
  <unicode hex="004C"/>
  <outline>
    <contour>
      <point x="450" y="-72" type="curve"/>
      <point x="450" y="-59"/>
      <point x="448" y="-36"/>
      <point x="446" y="-22" type="curve"/>
      <point x="346" y="-22"/>
      <point x="241" y="-31"/>
      <point x="155" y="-43" type="curve"/>
      <point x="131" y="128"/>
      <point x="124" y="258"/>
      <point x="122" y="392" type="curve" smooth="yes"/>
      <point x="121" y="488"/>
      <point x="121" y="576"/>
      <point x="129" y="672" type="curve"/>
      <point x="124" y="673"/>
      <point x="115" y="674"/>
      <point x="107" y="674" type="curve" smooth="yes"/>
      <point x="90" y="674"/>
      <point x="80" y="672"/>
      <point x="65" y="666" type="curve"/>
      <point x="58" y="426"/>
      <point x="73" y="172"/>
      <point x="109" y="-97" type="curve"/>
      <point x="208" y="-83"/>
      <point x="300" y="-73"/>
    </contour>
  </outline>
</glyph>
<glyph name="M" format="1">
  <advance width="701.678504414"/>
  <unicode hex="004D"/>
  <outline>
    <contour>
      <point x="160" y="4" type="curve"/>
      <point x="127" y="203"/>
      <point x="111" y="380"/>
      <point x="111" y="520" type="curve" smooth="yes"/>
      <point x="111" y="606"/>
      <point x="114" y="624"/>
      <point x="128" y="718" type="curve"/>
      <point x="61" y="731" type="line"/>
      <point x="51" y="500"/>
      <point x="66" y="217"/>
      <point x="103" y="-4" type="curve"/>
      <point x="105" y="-4"/>
      <point x="159" y="4"/>
    </contour>
    <contour>
      <point x="625" y="-48" type="curve"/>
      <point x="633" y="196"/>
      <point x="640" y="509"/>
      <point x="629" y="735" type="curve"/>
      <point x="579" y="735" type="line"/>
      <point x="584" y="376"/>
      <point x="577" y="173"/>
      <point x="563" y="-58" type="curve"/>
      <point x="586" y="-58"/>
      <point x="606" y="-55"/>
    </contour>
    <contour>
      <point x="368" y="205" type="curve"/>
      <point x="506" y="434"/>
      <point x="558" y="545"/>
      <point x="629" y="735" type="curve"/>
      <point x="627" y="736"/>
      <point x="565" y="754"/>
      <point x="563" y="754" type="curve"/>
      <point x="510" y="563"/>
      <point x="462" y="451"/>
      <point x="338" y="251" type="curve"/>
      <point x="364" y="241" type="line"/>
      <point x="305" y="432"/>
      <point x="215" y="621"/>
      <point x="122" y="754" type="curve"/>
      <point x="120" y="754"/>
      <point x="63" y="732"/>
      <point x="61" y="731" type="curve"/>
      <point x="172" y="582"/>
      <point x="251" y="421"/>
      <point x="327" y="199" type="curve"/>
      <point x="328" y="199"/>
      <point x="367" y="205"/>
    </contour>
  </outline>
</glyph>
<glyph name="P" format="1">
  <advance width="520"/>
  <unicode hex="0050"/>
  <outline>
    <contour>
      <point x="134" y="-68" type="curve"/>
      <point x="121" y="101"/>
      <point x="115" y="207"/>
      <point x="115" y="357" type="curve" smooth="yes"/>
      <point x="115" y="460"/>
      <point x="118" y="563"/>
      <point x="133" y="709" type="curve"/>
      <point x="68" y="721" type="line"/>
      <point x="64" y="672"/>
      <point x="61" y="586"/>
      <point x="61" y="538" type="curve" smooth="yes"/>
      <point x="61" y="340"/>
      <point x="61" y="222"/>
      <point x="84" y="-67" type="curve"/>
      <point x="85" y="-67"/>
      <point x="132" y="-68"/>
    </contour>
    <contour>
      <point x="489" y="547" type="curve" smooth="yes"/>
      <point x="489" y="660"/>
      <point x="408" y="742"/>
      <point x="234" y="742" type="curve" smooth="yes"/>
      <point x="177" y="742"/>
      <point x="126" y="734"/>
      <point x="68" y="721" type="curve"/>
      <point x="68" y="719"/>
      <point x="89" y="673"/>
      <point x="90" y="671" type="curve"/>
      <point x="140" y="688"/>
      <point x="185" y="698"/>
      <point x="239" y="698" type="curve" smooth="yes"/>
      <point x="367" y="698"/>
      <point x="429" y="640"/>
      <point x="429" y="542" type="curve" smooth="yes"/>
      <point x="429" y="417"/>
      <point x="302" y="333"/>
      <point x="99" y="281" type="curve"/>
      <point x="108" y="235" type="line"/>
      <point x="353" y="308"/>
      <point x="489" y="400"/>
    </contour>
  </outline>
</glyph>
<glyph name="R" format="1">
  <advance width="533"/>
  <unicode hex="0052"/>
  <outline>
    <contour>
      <point x="121" y="-5" type="curve"/>
      <point x="134" y="130"/>
      <point x="139" y="264"/>
      <point x="139" y="395" type="curve" smooth="yes"/>
      <point x="139" y="492"/>
      <point x="135" y="577"/>
      <point x="124" y="705" type="curve"/>
      <point x="122" y="705"/>
      <point x="63" y="708"/>
      <point x="61" y="707" type="curve"/>
      <point x="82" y="518"/>
      <point x="83" y="438"/>
      <point x="83" y="248" type="curve" smooth="yes"/>
      <point x="83" y="153"/>
      <point x="79" y="89"/>
      <point x="74" y="-3" type="curve"/>
      <point x="75" y="-3"/>
      <point x="119" y="-5"/>
    </contour>
    <contour>
      <point x="136" y="280" type="line"/>
      <point x="368" y="340"/>
      <point x="470" y="437"/>
      <point x="470" y="584" type="curve" smooth="yes"/>
      <point x="470" y="692"/>
      <point x="391" y="770"/>
      <point x="256" y="770" type="curve" smooth="yes"/>
      <point x="181" y="770"/>
      <point x="116" y="749"/>
      <point x="61" y="707" type="curve"/>
      <point x="61" y="706"/>
      <point x="92" y="667"/>
      <point x="92" y="665" type="curve"/>
      <point x="133" y="702"/>
      <point x="183" y="724"/>
      <point x="242" y="724" type="curve" smooth="yes"/>
      <point x="345" y="724"/>
      <point x="411" y="674"/>
      <point x="411" y="570" type="curve" smooth="yes"/>
      <point x="411" y="451"/>
      <point x="325" y="369"/>
      <point x="127" y="324" type="curve"/>
    </contour>
    <contour>
      <point x="517" y="0" type="curve"/>
      <point x="431" y="191"/>
      <point x="359" y="302"/>
      <point x="305" y="363" type="curve"/>
      <point x="260" y="342" type="line"/>
      <point x="342" y="233"/>
      <point x="392" y="143"/>
      <point x="466" y="-24" type="curve"/>
      <point x="469" y="-23"/>
      <point x="516" y="-2"/>
    </contour>
  </outline>
</glyph>
<glyph name="S" format="1">
  <advance width="445"/>
  <unicode hex="0053"/>
  <outline>
    <contour>
      <point x="409" y="140" type="curve" smooth="yes"/>
      <point x="409" y="395"/>
      <point x="133" y="360"/>
      <point x="133" y="587" type="curve" smooth="yes"/>
      <point x="133" y="675"/>
      <point x="171" y="720"/>
      <point x="238" y="720" type="curve" smooth="yes"/>
      <point x="303" y="720"/>
      <point x="341" y="684"/>
      <point x="355" y="565" type="curve"/>
      <point x="372" y="566"/>
      <point x="394" y="571"/>
      <point x="410" y="578" type="curve"/>
      <point x="389" y="694"/>
      <point x="353" y="767"/>
      <point x="241" y="767" type="curve" smooth="yes"/>
      <point x="141" y="767"/>
      <point x="73" y="700"/>
      <point x="73" y="584" type="curve" smooth="yes"/>
      <point x="73" y="325"/>
      <point x="349" y="362"/>
      <point x="349" y="137" type="curve" smooth="yes"/>
      <point x="349" y="61"/>
      <point x="304" y="7"/>
      <point x="231" y="7" type="curve" smooth="yes"/>
      <point x="130" y="7"/>
      <point x="87" y="110"/>
      <point x="88" y="246" type="curve"/>
      <point x="65" y="242"/>
      <point x="45" y="236"/>
      <point x="30" y="229" type="curve"/>
      <point x="30" y="107"/>
      <point x="75" y="-40"/>
      <point x="232" y="-40" type="curve" smooth="yes"/>
      <point x="334" y="-40"/>
      <point x="409" y="32"/>
    </contour>
  </outline>
</glyph>
<glyph name="T" format="1">
  <advance width="576"/>
  <unicode hex="0054"/>
  <outline>
    <contour>
      <point x="553" y="740" type="curve"/>
      <point x="553" y="747"/>
      <point x="554" y="755"/>
      <point x="553" y="764" type="curve" smooth="yes"/>
      <point x="552" y="772"/>
      <point x="550" y="782"/>
      <point x="546" y="791" type="curve"/>
      <point x="352" y="788"/>
      <point x="223" y="776"/>
      <point x="16" y="744" type="curve"/>
      <point x="15" y="732"/>
      <point x="16" y="712"/>
      <point x="20" y="693" type="curve"/>
      <point x="238" y="726"/>
      <point x="345" y="737"/>
    </contour>
    <contour>
      <point x="347" y="33" type="curve"/>
      <point x="349" y="95"/>
      <point x="350" y="153"/>
      <point x="350" y="209" type="curve" smooth="yes"/>
      <point x="350" y="400"/>
      <point x="339" y="559"/>
      <point x="317" y="763" type="curve"/>
      <point x="314" y="763"/>
      <point x="255" y="758"/>
      <point x="252" y="757" type="curve"/>
      <point x="284" y="539"/>
      <point x="300" y="263"/>
      <point x="292" y="25" type="curve"/>
      <point x="311" y="26"/>
      <point x="336" y="29"/>
    </contour>
  </outline>
</glyph>
<glyph name="U" format="1">
  <advance width="522"/>
  <unicode hex="0055"/>
  <outline>
    <contour>
      <point x="466" y="363" type="curve" smooth="yes"/>
      <point x="466" y="490"/>
      <point x="445" y="606"/>
      <point x="419" y="705" type="curve"/>
      <point x="393" y="703"/>
      <point x="376" y="700"/>
      <point x="357" y="694" type="curve"/>
      <point x="392" y="560"/>
      <point x="406" y="457"/>
      <point x="406" y="316" type="curve" smooth="yes"/>
      <point x="406" y="104"/>
      <point x="349" y="-31"/>
      <point x="238" y="-31" type="curve" smooth="yes"/>
      <point x="154" y="-31"/>
      <point x="111" y="41"/>
      <point x="111" y="293" type="curve" smooth="yes"/>
      <point x="111" y="403"/>
      <point x="130" y="521"/>
      <point x="158" y="632" type="curve"/>
      <point x="152" y="633"/>
      <point x="145" y="634"/>
      <point x="136" y="634" type="curve" smooth="yes"/>
      <point x="128" y="634"/>
      <point x="110" y="633"/>
      <point x="100" y="630" type="curve"/>
      <point x="75" y="553"/>
      <point x="50" y="408"/>
      <point x="50" y="274" type="curve" smooth="yes"/>
      <point x="50" y="3"/>
      <point x="124" y="-80"/>
      <point x="227" y="-80" type="curve" smooth="yes"/>
      <point x="376" y="-80"/>
      <point x="466" y="40"/>
    </contour>
  </outline>
</glyph>
<glyph name="V" format="1">
  <advance width="533"/>
  <unicode hex="0056"/>
  <outline>
    <contour>
      <point x="258" y="-90" type="curve"/>
      <point x="399" y="213"/>
      <point x="458" y="398"/>
      <point x="495" y="751" type="curve"/>
      <point x="473" y="758"/>
      <point x="458" y="761"/>
      <point x="438" y="760" type="curve"/>
      <point x="410" y="440"/>
      <point x="356" y="245"/>
      <point x="242" y="-24" type="curve"/>
      <point x="158" y="188"/>
      <point x="101" y="402"/>
      <point x="75" y="633" type="curve"/>
      <point x="53" y="630"/>
      <point x="39" y="625"/>
      <point x="18" y="615" type="curve"/>
      <point x="54" y="352"/>
      <point x="119" y="121"/>
      <point x="214" y="-95" type="curve"/>
      <point x="230" y="-95"/>
      <point x="241" y="-94"/>
    </contour>
  </outline>
</glyph>
<glyph name="W" format="1">
  <advance width="679"/>
  <unicode hex="0057"/>
  <outline>
    <contour>
      <point x="461" y="-30" type="curve"/>
      <point x="579" y="250"/>
      <point x="620" y="442"/>
      <point x="655" y="695" type="curve"/>
      <point x="634" y="706"/>
      <point x="615" y="710"/>
      <point x="598" y="710" type="curve"/>
      <point x="572" y="461"/>
      <point x="525" y="260"/>
      <point x="430" y="9" type="curve"/>
      <point x="449" y="8" type="line"/>
      <point x="400" y="213"/>
      <point x="369" y="359"/>
      <point x="362" y="536" type="curve"/>
      <point x="344" y="534"/>
      <point x="326" y="531"/>
      <point x="309" y="527" type="curve"/>
      <point x="291" y="354"/>
      <point x="260" y="232"/>
      <point x="187" y="6" type="curve"/>
      <point x="205" y="6" type="line"/>
      <point x="139" y="241"/>
      <point x="94" y="455"/>
      <point x="80" y="672" type="curve"/>
      <point x="54" y="670"/>
      <point x="38" y="666"/>
      <point x="22" y="660" type="curve"/>
      <point x="45" y="413"/>
      <point x="87" y="220"/>
      <point x="171" y="-62" type="curve"/>
      <point x="184" y="-61"/>
      <point x="198" y="-57"/>
      <point x="211" y="-53" type="curve"/>
      <point x="264" y="86"/>
      <point x="299" y="206"/>
      <point x="327" y="331" type="curve"/>
      <point x="344" y="220"/>
      <point x="373" y="115"/>
      <point x="412" y="-37" type="curve"/>
      <point x="430" y="-36"/>
      <point x="443" y="-34"/>
    </contour>
  </outline>
</glyph>
<glyph name="X" format="1">
  <advance width="619"/>
  <unicode hex="0058"/>
  <outline>
    <contour>
      <point x="558" y="8" type="curve"/>
      <point x="546" y="-5"/>
      <point x="531" y="-16"/>
      <point x="515" y="-24" type="curve"/>
      <point x="355" y="351"/>
      <point x="254" y="520"/>
      <point x="62" y="724" type="curve"/>
      <point x="80" y="740"/>
      <point x="98" y="753"/>
      <point x="120" y="762" type="curve"/>
      <point x="331" y="508"/>
      <point x="415" y="347"/>
    </contour>
    <contour>
      <point x="41" y="23" type="curve"/>
      <point x="27" y="32"/>
      <point x="16" y="43"/>
      <point x="9" y="55" type="curve"/>
      <point x="124" y="176"/>
      <point x="221" y="287"/>
      <point x="315" y="411" type="curve"/>
      <point x="332" y="426" type="line"/>
      <point x="401" y="520"/>
      <point x="467" y="620"/>
      <point x="530" y="737" type="curve"/>
      <point x="547" y="729"/>
      <point x="563" y="714"/>
      <point x="575" y="697" type="curve"/>
      <point x="507" y="584"/>
      <point x="436" y="482"/>
      <point x="361" y="384" type="curve"/>
      <point x="343" y="368" type="line"/>
      <point x="251" y="251"/>
      <point x="157" y="141"/>
    </contour>
  </outline>
</glyph>
<glyph name="Y" format="1">
  <advance width="488"/>
  <unicode hex="0059"/>
  <outline>
    <contour>
      <point x="275" y="224" type="line"/>
      <point x="176" y="355"/>
      <point x="106" y="506"/>
      <point x="74" y="727" type="curve"/>
      <point x="51" y="724"/>
      <point x="31" y="718"/>
      <point x="10" y="710" type="curve"/>
      <point x="63" y="470"/>
      <point x="139" y="306"/>
      <point x="254" y="178" type="curve"/>
    </contour>
    <contour>
      <point x="136" y="-80" type="curve"/>
      <point x="317" y="161"/>
      <point x="387" y="412"/>
      <point x="457" y="689" type="curve"/>
      <point x="435" y="699"/>
      <point x="413" y="707"/>
      <point x="391" y="713" type="curve"/>
      <point x="340" y="407"/>
      <point x="260" y="178"/>
      <point x="88" y="-59" type="curve"/>
      <point x="102" y="-68"/>
      <point x="118" y="-75"/>
    </contour>
  </outline>
</glyph>
<glyph name="Z" format="1">
  <advance width="569"/>
  <unicode hex="005A"/>
  <outline>
    <contour>
      <point x="492" y="-34" type="curve"/>
      <point x="502" y="-12"/>
      <point x="508" y="8"/>
      <point x="509" y="28" type="curve"/>
      <point x="378" y="19"/>
      <point x="230" y="24"/>
      <point x="75" y="42" type="curve"/>
      <point x="303" y="286"/>
      <point x="438" y="461"/>
      <point x="540" y="623" type="curve"/>
      <point x="540" y="625"/>
      <point x="547" y="662"/>
      <point x="547" y="664" type="curve"/>
      <point x="395" y="686"/>
      <point x="268" y="704"/>
      <point x="109" y="737" type="curve"/>
      <point x="98" y="721"/>
      <point x="91" y="702"/>
      <point x="90" y="681" type="curve"/>
      <point x="210" y="659"/>
      <point x="336" y="642"/>
      <point x="515" y="625" type="curve"/>
      <point x="489" y="649" type="line"/>
      <point x="416" y="514"/>
      <point x="279" y="324"/>
      <point x="21" y="53" type="curve"/>
      <point x="18" y="39"/>
      <point x="17" y="23"/>
      <point x="18" y="5" type="curve"/>
      <point x="149" y="-17"/>
      <point x="319" y="-33"/>
    </contour>
  </outline>
</glyph>
<glyph name="a" format="1">
  <advance width="416"/>
  <unicode hex="0061"/>
  <outline>
    <contour>
      <point x="71" y="346"/>
      <point x="54" y="354"/>
      <point x="43" y="369" type="curve"/>
      <point x="57" y="457"/>
      <point x="134" y="533"/>
      <point x="225" y="533" type="curve" smooth="yes"/>
      <point x="339" y="533"/>
      <point x="366" y="436"/>
      <point x="366" y="338" type="curve" smooth="yes"/>
      <point x="366.0" y="241.0"/>
      <point x="335" y="72"/>
      <point x="305" y="-34" type="curve"/>
      <point x="290.385964912" y="-34.0"/>
      <point x="272" y="-30"/>
      <point x="256" y="-24" type="curve"/>
      <point x="298" y="145"/>
      <point x="307" y="201"/>
      <point x="307" y="341" type="curve" smooth="yes"/>
      <point x="307" y="454"/>
      <point x="276" y="488"/>
      <point x="216" y="488" type="curve" smooth="yes"/>
      <point x="150" y="488"/>
      <point x="101" y="425"/>
      <point x="98" y="340" type="curve"/>
    </contour>
    <contour>
      <point x="313" y="231" type="line"/>
      <point x="120" y="246"/>
      <point x="78" y="192"/>
      <point x="78" y="138" type="curve" smooth="yes"/>
      <point x="78" y="85"/>
      <point x="117" y="52"/>
      <point x="172" y="52" type="curve" smooth="yes"/>
      <point x="222" y="52"/>
      <point x="268" y="71"/>
      <point x="301" y="106" type="curve"/>
      <point x="296" y="67" type="line"/>
      <point x="271" y="33"/>
      <point x="224" y="8"/>
      <point x="167" y="8" type="curve" smooth="yes"/>
      <point x="79" y="8"/>
      <point x="20" y="60"/>
      <point x="20" y="138" type="curve" smooth="yes"/>
      <point x="20" y="218"/>
      <point x="86" y="269"/>
      <point x="235" y="269" type="curve" smooth="yes"/>
      <point x="267" y="269"/>
      <point x="289" y="268"/>
      <point x="314" y="266" type="curve"/>
    </contour>
  </outline>
</glyph>
<glyph name="b" format="1">
  <advance width="405"/>
  <unicode hex="0062"/>
  <outline>
    <contour>
      <point x="50" y="-16" type="curve"/>
      <point x="68" y="-19"/>
      <point x="81" y="-34"/>
      <point x="99" y="-35" type="curve"/>
      <point x="91" y="27"/>
      <point x="93" y="86"/>
      <point x="93" y="204" type="curve" smooth="yes"/>
      <point x="93" y="338"/>
      <point x="106" y="541"/>
      <point x="130" y="692" type="curve"/>
      <point x="120" y="694"/>
      <point x="113" y="696"/>
      <point x="102" y="696" type="curve" smooth="yes"/>
      <point x="88" y="696"/>
      <point x="77" y="695"/>
      <point x="64" y="691" type="curve"/>
      <point x="52" y="599"/>
      <point x="45" y="424"/>
      <point x="45" y="273" type="curve" smooth="yes"/>
      <point x="45" y="243"/>
      <point x="43" y="94"/>
    </contour>
    <contour>
      <point x="89" y="13" type="curve"/>
      <point x="50" y="-16" type="line"/>
      <point x="78" y="-45"/>
      <point x="112" y="-60"/>
      <point x="156" y="-60" type="curve" smooth="yes"/>
      <point x="287" y="-60"/>
      <point x="375" y="67"/>
      <point x="375" y="276" type="curve" smooth="yes"/>
      <point x="375" y="419"/>
      <point x="322" y="483"/>
      <point x="238" y="483" type="curve" smooth="yes"/>
      <point x="144" y="483"/>
      <point x="88" y="412"/>
      <point x="53" y="295" type="curve"/>
      <point x="84" y="267" type="line"/>
      <point x="112" y="386"/>
      <point x="173" y="438"/>
      <point x="219" y="438" type="curve" smooth="yes"/>
      <point x="280" y="438"/>
      <point x="316" y="389"/>
      <point x="316" y="275" type="curve" smooth="yes"/>
      <point x="316" y="118"/>
      <point x="273" y="-15"/>
      <point x="160" y="-15" type="curve" smooth="yes"/>
      <point x="127" y="-15"/>
      <point x="108" y="-5"/>
    </contour>
  </outline>
</glyph>
<glyph name="c" format="1">
  <advance width="396"/>
  <unicode hex="0063"/>
  <outline>
    <contour>
      <point x="309" y="325" type="curve"/>
      <point x="332" y="325"/>
      <point x="351" y="330"/>
      <point x="368" y="338" type="curve"/>
      <point x="368" y="436"/>
      <point x="324" y="511"/>
      <point x="228" y="511" type="curve" smooth="yes"/>
      <point x="113" y="511"/>
      <point x="30" y="366"/>
      <point x="30" y="168" type="curve" smooth="yes"/>
      <point x="30" y="49"/>
      <point x="70" y="-56"/>
      <point x="189" y="-56" type="curve" smooth="yes"/>
      <point x="272" y="-56"/>
      <point x="346" y="13"/>
      <point x="366" y="90" type="curve"/>
      <point x="356" y="102"/>
      <point x="344" y="110"/>
      <point x="328" y="116" type="curve"/>
      <point x="298" y="40"/>
      <point x="254" y="-11"/>
      <point x="197" y="-11" type="curve" smooth="yes"/>
      <point x="117" y="-11"/>
      <point x="84" y="73"/>
      <point x="84" y="173" type="curve" smooth="yes"/>
      <point x="84" y="316"/>
      <point x="145" y="466"/>
      <point x="230" y="466" type="curve" smooth="yes"/>
      <point x="288" y="466"/>
      <point x="309" y="408"/>
    </contour>
  </outline>
</glyph>
<glyph name="d" format="1">
  <advance width="428"/>
  <unicode hex="0064"/>
  <outline>
    <contour>
      <point x="334" y="457" type="curve"/>
      <point x="342" y="498" type="line"/>
      <point x="330" y="506"/>
      <point x="282" y="518"/>
      <point x="242" y="518" type="curve" smooth="yes"/>
      <point x="113" y="518"/>
      <point x="33" y="406"/>
      <point x="33" y="236" type="curve" smooth="yes"/>
      <point x="33" y="88"/>
      <point x="91" y="-30"/>
      <point x="197" y="-30" type="curve" smooth="yes"/>
      <point x="277" y="-30"/>
      <point x="336" y="34"/>
      <point x="348" y="257" type="curve"/>
      <point x="323" y="281" type="line"/>
      <point x="316" y="69"/>
      <point x="254" y="14"/>
      <point x="199" y="14" type="curve" smooth="yes"/>
      <point x="134" y="14"/>
      <point x="88" y="90"/>
      <point x="88" y="245" type="curve" smooth="yes"/>
      <point x="88" y="409"/>
      <point x="170" y="474"/>
      <point x="250" y="474" type="curve" smooth="yes"/>
      <point x="293" y="474"/>
      <point x="316" y="467"/>
    </contour>
    <contour>
      <point x="312" y="476"/>
      <point x="320" y="128"/>
      <point x="330" y="-42" type="curve"/>
      <point x="343" y="-42"/>
      <point x="360" y="-39"/>
      <point x="370" y="-36" type="curve"/>
      <point x="368" y="15"/>
      <point x="367" y="53"/>
      <point x="367" y="127" type="curve" smooth="yes"/>
      <point x="367" y="307"/>
      <point x="365" y="588"/>
      <point x="375" y="723" type="curve"/>
      <point x="364" y="726"/>
      <point x="354" y="727"/>
      <point x="345" y="727" type="curve" smooth="yes"/>
      <point x="333" y="727"/>
      <point x="320" y="723"/>
      <point x="312" y="719" type="curve"/>
    </contour>
  </outline>
</glyph>
<glyph name="e" format="1">
  <advance width="404"/>
  <unicode hex="0065"/>
  <outline>
    <contour>
      <point x="74" y="274" type="line"/>
      <point x="125" y="253"/>
      <point x="180" y="243"/>
      <point x="229" y="243" type="curve" smooth="yes"/>
      <point x="271" y="243"/>
      <point x="308" y="246"/>
      <point x="336" y="255" type="curve"/>
      <point x="348" y="285"/>
      <point x="361" y="332"/>
      <point x="361" y="388" type="curve" smooth="yes"/>
      <point x="361" y="467"/>
      <point x="320" y="524"/>
      <point x="243" y="524" type="curve" smooth="yes"/>
      <point x="112" y="524"/>
      <point x="30" y="357"/>
      <point x="30" y="225" type="curve" smooth="yes"/>
      <point x="30" y="96"/>
      <point x="84" y="-10"/>
      <point x="195" y="-10" type="curve" smooth="yes"/>
      <point x="275" y="-10"/>
      <point x="361" y="69"/>
      <point x="384" y="141" type="curve"/>
      <point x="372" y="154"/>
      <point x="354" y="164"/>
      <point x="338" y="167" type="curve"/>
      <point x="317" y="92"/>
      <point x="251" y="35"/>
      <point x="194" y="35" type="curve" smooth="yes"/>
      <point x="122" y="35"/>
      <point x="85" y="121"/>
      <point x="85" y="221" type="curve" smooth="yes"/>
      <point x="85" y="337"/>
      <point x="149" y="478"/>
      <point x="238" y="478" type="curve" smooth="yes"/>
      <point x="292" y="478"/>
      <point x="306" y="445"/>
      <point x="306" y="389" type="curve" smooth="yes"/>
      <point x="306" y="354"/>
      <point x="298" y="316"/>
      <point x="291" y="289" type="curve"/>
      <point x="282" y="286"/>
      <point x="260" y="284"/>
      <point x="246" y="284" type="curve" smooth="yes"/>
      <point x="205" y="284"/>
      <point x="134" y="287"/>
      <point x="72" y="320" type="curve"/>
    </contour>
  </outline>
</glyph>
<glyph name="f" format="1">
  <advance width="349"/>
  <unicode hex="0066"/>
  <outline>
    <contour>
      <point x="166" y="-15"/>
      <point x="146" y="-21"/>
      <point x="127" y="-21" type="curve"/>
      <point x="114" y="38"/>
      <point x="88" y="236"/>
      <point x="88" y="402" type="curve" smooth="yes"/>
      <point x="88" y="637"/>
      <point x="134" y="727"/>
      <point x="225" y="727" type="curve" smooth="yes"/>
      <point x="295" y="727"/>
      <point x="331" y="671"/>
      <point x="331" y="604" type="curve" smooth="yes"/>
      <point x="331" y="583"/>
      <point x="325" y="555"/>
      <point x="318" y="542" type="curve"/>
      <point x="301" y="542"/>
      <point x="285" y="545"/>
      <point x="270" y="551" type="curve"/>
      <point x="275" y="567"/>
      <point x="280" y="587"/>
      <point x="280" y="611" type="curve" smooth="yes"/>
      <point x="280" y="652"/>
      <point x="260" y="682"/>
      <point x="225" y="682" type="curve" smooth="yes"/>
      <point x="170" y="682"/>
      <point x="139" y="599"/>
      <point x="139" y="448" type="curve" smooth="yes"/>
      <point x="139" y="274"/>
      <point x="153" y="117"/>
      <point x="183" y="-9" type="curve"/>
    </contour>
    <contour>
      <point x="89" y="433"/>
      <point x="152" y="428"/>
      <point x="221" y="428" type="curve" smooth="yes"/>
      <point x="249" y="428"/>
      <point x="272" y="431"/>
      <point x="289" y="434" type="curve"/>
      <point x="289" y="419"/>
      <point x="286" y="398"/>
      <point x="284" y="386" type="curve"/>
      <point x="273" y="384"/>
      <point x="255" y="382"/>
      <point x="216" y="382" type="curve" smooth="yes"/>
      <point x="133" y="382"/>
      <point x="55" y="395"/>
      <point x="26" y="407" type="curve"/>
      <point x="26" y="416"/>
      <point x="27" y="437"/>
      <point x="32" y="442" type="curve"/>
    </contour>
  </outline>
</glyph>
<glyph name="g" format="1">
  <advance width="414"/>
  <unicode hex="0067"/>
  <outline>
    <contour>
      <point x="272" y="457" type="curve"/>
      <point x="278" y="500" type="line"/>
      <point x="266" y="507"/>
      <point x="244" y="513"/>
      <point x="222" y="513" type="curve" smooth="yes"/>
      <point x="116" y="513"/>
      <point x="37" y="421"/>
      <point x="37" y="257" type="curve" smooth="yes"/>
      <point x="37" y="101"/>
      <point x="98" y="4"/>
      <point x="194" y="4" type="curve" smooth="yes"/>
      <point x="255" y="4"/>
      <point x="301" y="50"/>
      <point x="333" y="198" type="curve"/>
      <point x="308" y="238" type="line"/>
      <point x="288" y="130"/>
      <point x="257" y="51"/>
      <point x="195" y="51" type="curve" smooth="yes"/>
      <point x="141" y="51"/>
      <point x="97" y="117"/>
      <point x="97" y="253" type="curve" smooth="yes"/>
      <point x="97" y="403"/>
      <point x="142" y="467"/>
      <point x="223" y="467" type="curve" smooth="yes"/>
      <point x="240" y="467"/>
      <point x="258" y="462"/>
    </contour>
    <contour>
      <point x="297" y="522"/>
      <point x="270" y="510"/>
      <point x="255" y="495" type="curve"/>
      <point x="282" y="420"/>
      <point x="305" y="327"/>
      <point x="305" y="150" type="curve" smooth="yes"/>
      <point x="305" y="-145"/>
      <point x="233" y="-202"/>
      <point x="180" y="-202" type="curve" smooth="yes"/>
      <point x="125" y="-202"/>
      <point x="94" y="-163"/>
      <point x="79" y="-62" type="curve"/>
      <point x="59" y="-68"/>
      <point x="41" y="-77"/>
      <point x="25" y="-87" type="curve"/>
      <point x="37" y="-156"/>
      <point x="86" y="-247"/>
      <point x="177" y="-247" type="curve" smooth="yes"/>
      <point x="248" y="-247"/>
      <point x="361" y="-179"/>
      <point x="361" y="169" type="curve" smooth="yes"/>
      <point x="361" y="301"/>
      <point x="337" y="462"/>
      <point x="319" y="522" type="curve"/>
    </contour>
  </outline>
</glyph>
<glyph name="h" format="1">
  <advance width="428"/>
  <unicode hex="0068"/>
  <outline>
    <contour>
      <point x="385" y="323" type="curve" smooth="yes"/>
      <point x="385" y="470"/>
      <point x="344" y="523"/>
      <point x="256" y="523" type="curve" smooth="yes"/>
      <point x="185" y="523"/>
      <point x="118" y="449"/>
      <point x="82" y="352" type="curve"/>
      <point x="91" y="258" type="line"/>
      <point x="121" y="411"/>
      <point x="199" y="476"/>
      <point x="253" y="476" type="curve" smooth="yes"/>
      <point x="310" y="476"/>
      <point x="330" y="436"/>
      <point x="330" y="322" type="curve" smooth="yes"/>
      <point x="330" y="208"/>
      <point x="302" y="81"/>
      <point x="265" y="-15" type="curve"/>
      <point x="279" y="-24"/>
      <point x="295" y="-29"/>
      <point x="311" y="-32" type="curve"/>
      <point x="332" y="16"/>
      <point x="385" y="189"/>
    </contour>
    <contour>
      <point x="64" y="27" type="curve"/>
      <point x="80" y="27"/>
      <point x="101" y="29"/>
      <point x="114" y="33" type="curve"/>
      <point x="109" y="72"/>
      <point x="97" y="223"/>
      <point x="97" y="319" type="curve" smooth="yes"/>
      <point x="97" y="458"/>
      <point x="116" y="623"/>
      <point x="142" y="747" type="curve"/>
      <point x="129" y="750"/>
      <point x="121" y="755"/>
      <point x="108" y="755" type="curve" smooth="yes"/>
      <point x="94" y="755"/>
      <point x="83" y="750"/>
      <point x="71" y="744" type="curve"/>
      <point x="60" y="675"/>
      <point x="49" y="491"/>
      <point x="49" y="378" type="curve" smooth="yes"/>
      <point x="49" y="278"/>
      <point x="54" y="160"/>
    </contour>
  </outline>
</glyph>
<glyph name="i" format="1">
  <advance width="202"/>
  <unicode hex="0069"/>
  <outline>
    <contour>
      <point x="120" y="511"/>
      <point x="109" y="508"/>
      <point x="101" y="504" type="curve"/>
      <point x="72" y="375"/>
      <point x="47" y="196"/>
      <point x="47" y="84" type="curve" smooth="yes"/>
      <point x="47" y="52"/>
      <point x="47" y="22"/>
      <point x="50" y="-3" type="curve"/>
      <point x="56" y="-5"/>
      <point x="58" y="-5"/>
      <point x="65" y="-5" type="curve" smooth="yes"/>
      <point x="75" y="-5"/>
      <point x="84" y="-2"/>
      <point x="91" y="1" type="curve"/>
      <point x="91" y="201"/>
      <point x="131" y="407"/>
      <point x="157" y="508" type="curve"/>
      <point x="150" y="510"/>
      <point x="143" y="511"/>
      <point x="137" y="511" type="curve" smooth="yes"/>
    </contour>
    <contour>
      <point x="174" y="666"/>
      <point x="189" y="706"/>
      <point x="202" y="734" type="curve"/>
      <point x="190" y="741"/>
      <point x="181" y="743"/>
      <point x="168" y="744" type="curve" smooth="yes"/>
      <point x="155" y="745"/>
      <point x="146" y="744"/>
      <point x="135" y="740" type="curve"/>
      <point x="125" y="717"/>
      <point x="121" y="690"/>
      <point x="121" y="662" type="curve" smooth="yes"/>
      <point x="121" y="650"/>
      <point x="122" y="637"/>
      <point x="123" y="625" type="curve"/>
      <point x="139" y="624"/>
      <point x="155" y="625"/>
      <point x="165" y="626" type="curve"/>
    </contour>
  </outline>
</glyph>
<glyph name="j" format="1">
  <advance width="240"/>
  <unicode hex="006A"/>
  <outline>
    <contour>
      <point x="34" y="-224" type="curve" smooth="yes"/>
      <point x="-19" y="-224"/>
      <point x="-51" y="-202"/>
      <point x="-87" y="-157" type="curve"/>
      <point x="-79" y="-139"/>
      <point x="-68" y="-122"/>
      <point x="-56" y="-110" type="curve"/>
      <point x="-31" y="-154"/>
      <point x="0" y="-179"/>
      <point x="29" y="-179" type="curve" smooth="yes"/>
      <point x="92" y="-179"/>
      <point x="127" y="-109"/>
      <point x="127" y="44" type="curve" smooth="yes"/>
      <point x="127" y="183"/>
      <point x="96" y="343"/>
      <point x="42" y="505" type="curve"/>
      <point x="62" y="511"/>
      <point x="81" y="516"/>
      <point x="107" y="519" type="curve"/>
      <point x="155" y="341"/>
      <point x="182" y="179"/>
      <point x="182" y="70" type="curve" smooth="yes"/>
      <point x="182" y="-138"/>
      <point x="124" y="-224"/>
    </contour>
    <contour>
      <point x="83" y="667"/>
      <point x="95" y="708"/>
      <point x="106" y="737" type="curve"/>
      <point x="93" y="743"/>
      <point x="84" y="744"/>
      <point x="71" y="745" type="curve" smooth="yes"/>
      <point x="58" y="745"/>
      <point x="49" y="743"/>
      <point x="38" y="738" type="curve"/>
      <point x="30" y="714"/>
      <point x="28" y="687"/>
      <point x="30" y="659" type="curve" smooth="yes"/>
      <point x="31" y="647"/>
      <point x="33" y="634"/>
      <point x="35" y="622" type="curve"/>
      <point x="51" y="623"/>
      <point x="67" y="625"/>
      <point x="77" y="627" type="curve"/>
    </contour>
  </outline>
</glyph>
<glyph name="m" format="1">
  <advance width="656"/>
  <unicode hex="006D"/>
  <outline>
    <contour>
      <point x="327" y="54"/>
      <point x="355" y="194"/>
      <point x="355" y="318" type="curve" smooth="yes"/>
      <point x="355.0" y="457.0"/>
      <point x="316.238095238" y="503.0"/>
      <point x="245" y="503" type="curve" smooth="yes"/>
      <point x="189.619318182" y="503.0"/>
      <point x="126.111151667" y="468.206984655"/>
      <point x="74" y="355" type="curve"/>
      <point x="92" y="316" type="line"/>
      <point x="125.596707109" y="408.833006486"/>
      <point x="184.712328767" y="452.0"/>
      <point x="233" y="452" type="curve" smooth="yes"/>
      <point x="281.629032258" y="452.0"/>
      <point x="300.0" y="413.0"/>
      <point x="300" y="322" type="curve" smooth="yes"/>
      <point x="300" y="223"/>
      <point x="286" y="131"/>
      <point x="266" y="24" type="curve"/>
      <point x="277" y="18"/>
      <point x="300" y="13"/>
      <point x="316" y="12" type="curve"/>
    </contour>
    <contour>
      <point x="41" y="353"/>
      <point x="48" y="94"/>
      <point x="55" y="-35" type="curve"/>
      <point x="71" y="-35"/>
      <point x="90" y="-32"/>
      <point x="103" y="-27" type="curve"/>
      <point x="97" y="19"/>
      <point x="95" y="139"/>
      <point x="95" y="180" type="curve" smooth="yes"/>
      <point x="95.0" y="277.282798834"/>
      <point x="100" y="435"/>
      <point x="110" y="524" type="curve"/>
      <point x="97" y="527"/>
      <point x="87.1538461538" y="527.0"/>
      <point x="77" y="527" type="curve" smooth="yes"/>
      <point x="64" y="527"/>
      <point x="51" y="524"/>
      <point x="41" y="519" type="curve"/>
    </contour>
    <contour>
      <point x="564" y="36"/>
      <point x="606" y="214"/>
      <point x="606" y="373" type="curve" smooth="yes"/>
      <point x="606.0" y="512.0"/>
      <point x="567.238095238" y="558.0"/>
      <point x="496" y="558" type="curve" smooth="yes"/>
      <point x="439.620111732" y="558.0"/>
      <point x="378.721774973" y="517.399619678"/>
      <point x="322" y="395" type="curve"/>
      <point x="343" y="351" type="line"/>
      <point x="380.851582776" y="455.589899777"/>
      <point x="435.712328767" y="507.0"/>
      <point x="484" y="507" type="curve" smooth="yes"/>
      <point x="532.629032258" y="507.0"/>
      <point x="551.0" y="468.0"/>
      <point x="551" y="377" type="curve" smooth="yes"/>
      <point x="551" y="249"/>
      <point x="534" y="132"/>
      <point x="499" y="-7" type="curve"/>
      <point x="510" y="-13"/>
      <point x="533" y="-18"/>
      <point x="549" y="-19" type="curve"/>
    </contour>
  </outline>
</glyph>
<glyph name="n" format="1">
  <advance width="421"/>
  <unicode hex="006E"/>
  <outline>
    <contour>
      <point x="341" y="57"/>
      <point x="368" y="206"/>
      <point x="368" y="338" type="curve" smooth="yes"/>
      <point x="368" y="477"/>
      <point x="328" y="523"/>
      <point x="253" y="523" type="curve" smooth="yes"/>
      <point x="196" y="523"/>
      <point x="135" y="481"/>
      <point x="77" y="355" type="curve"/>
      <point x="95" y="316" type="line"/>
      <point x="133" y="421"/>
      <point x="191" y="472"/>
      <point x="241" y="472" type="curve" smooth="yes"/>
      <point x="293" y="472"/>
      <point x="313" y="433"/>
      <point x="313" y="342" type="curve" smooth="yes"/>
      <point x="313" y="236"/>
      <point x="300" y="138"/>
      <point x="279" y="24" type="curve"/>
      <point x="290" y="18"/>
      <point x="313" y="13"/>
      <point x="329" y="12" type="curve"/>
    </contour>
    <contour>
      <point x="44" y="353"/>
      <point x="51" y="94"/>
      <point x="58" y="-35" type="curve"/>
      <point x="74" y="-35"/>
      <point x="93" y="-32"/>
      <point x="106" y="-27" type="curve"/>
      <point x="100" y="19"/>
      <point x="98" y="139"/>
      <point x="98" y="180" type="curve" smooth="yes"/>
      <point x="98" y="277"/>
      <point x="105" y="435"/>
      <point x="112" y="524" type="curve"/>
      <point x="100" y="526"/>
      <point x="90" y="527"/>
      <point x="80" y="527" type="curve" smooth="yes"/>
      <point x="67" y="527"/>
      <point x="54" y="524"/>
      <point x="44" y="519" type="curve"/>
    </contour>
  </outline>
</glyph>
<glyph name="o" format="1">
  <advance width="419"/>
  <unicode hex="006F"/>
  <outline>
    <contour>
      <point x="229" y="533" type="curve" smooth="yes"/>
      <point x="114" y="533"/>
      <point x="30" y="418"/>
      <point x="30" y="244" type="curve" smooth="yes"/>
      <point x="30" y="105"/>
      <point x="90" y="-10"/>
      <point x="199" y="-10" type="curve" smooth="yes"/>
      <point x="316" y="-10"/>
      <point x="389" y="128"/>
      <point x="389" y="317" type="curve" smooth="yes"/>
      <point x="389" y="446"/>
      <point x="330" y="533"/>
    </contour>
    <contour>
      <point x="216" y="488" type="curve" smooth="yes"/>
      <point x="288" y="488"/>
      <point x="330" y="429"/>
      <point x="330" y="277" type="curve" smooth="yes"/>
      <point x="330" y="132"/>
      <point x="267" y="35"/>
      <point x="207" y="35" type="curve" smooth="yes"/>
      <point x="119" y="35"/>
      <point x="85" y="156"/>
      <point x="85" y="251" type="curve" smooth="yes"/>
      <point x="85" y="390"/>
      <point x="150" y="488"/>
    </contour>
  </outline>
</glyph>
<glyph name="p" format="1">
  <advance width="411"/>
  <unicode hex="0070"/>
  <outline>
    <contour>
      <point x="85" y="112" type="curve"/>
      <point x="76" y="46" type="line"/>
      <point x="97" y="25"/>
      <point x="121" y="10"/>
      <point x="166" y="10" type="curve" smooth="yes"/>
      <point x="279" y="10"/>
      <point x="381" y="152"/>
      <point x="381" y="355" type="curve" smooth="yes"/>
      <point x="381" y="476"/>
      <point x="331" y="553"/>
      <point x="257" y="553" type="curve" smooth="yes"/>
      <point x="166" y="553"/>
      <point x="97" y="463"/>
      <point x="73" y="322" type="curve"/>
      <point x="95" y="303" type="line"/>
      <point x="124" y="447"/>
      <point x="180" y="497"/>
      <point x="237" y="497" type="curve" smooth="yes"/>
      <point x="286" y="497"/>
      <point x="322" y="447"/>
      <point x="322" y="352" type="curve" smooth="yes"/>
      <point x="322" y="169"/>
      <point x="243" y="53"/>
      <point x="166" y="53" type="curve" smooth="yes"/>
      <point x="131" y="53"/>
      <point x="106" y="73"/>
    </contour>
    <contour>
      <point x="89" y="-218" type="curve"/>
      <point x="106" y="-218"/>
      <point x="123" y="-215"/>
      <point x="139" y="-210" type="curve"/>
      <point x="121" y="-101"/>
      <point x="101" y="46"/>
      <point x="101" y="290" type="curve"/>
      <point x="101" y="409"/>
      <point x="109" y="481"/>
      <point x="128" y="555" type="curve"/>
      <point x="121" y="557"/>
      <point x="116" y="558"/>
      <point x="105" y="558" type="curve" smooth="yes"/>
      <point x="88" y="558"/>
      <point x="74" y="555"/>
      <point x="59" y="547" type="curve"/>
      <point x="53" y="489"/>
      <point x="50" y="431"/>
      <point x="50" y="348" type="curve" smooth="yes"/>
      <point x="50" y="144"/>
      <point x="72" y="-91"/>
    </contour>
  </outline>
</glyph>
<glyph name="r" format="1">
  <advance width="322"/>
  <unicode hex="0072"/>
  <outline>
    <contour>
      <point x="136" y="-12" type="curve"/>
      <point x="88" y="242"/>
      <point x="82" y="363"/>
      <point x="98" y="533" type="curve"/>
      <point x="88" y="535"/>
      <point x="80" y="536"/>
      <point x="72" y="536" type="curve" smooth="yes"/>
      <point x="59" y="536"/>
      <point x="46" y="535"/>
      <point x="36" y="530" type="curve"/>
      <point x="33" y="353"/>
      <point x="47" y="169"/>
      <point x="88" y="-19" type="curve"/>
      <point x="95" y="-20"/>
      <point x="102" y="-20"/>
      <point x="110" y="-19" type="curve" smooth="yes"/>
      <point x="119" y="-18"/>
      <point x="129" y="-15"/>
    </contour>
    <contour>
      <point x="297" y="408" type="curve"/>
      <point x="305" y="525"/>
      <point x="284" y="575"/>
      <point x="227" y="575" type="curve" smooth="yes"/>
      <point x="159" y="575"/>
      <point x="89" y="455"/>
      <point x="76" y="283" type="curve"/>
      <point x="92" y="212" type="line"/>
      <point x="116" y="404"/>
      <point x="169" y="526"/>
      <point x="221" y="526" type="curve" smooth="yes"/>
      <point x="251" y="526"/>
      <point x="260" y="491"/>
      <point x="253" y="403" type="curve"/>
      <point x="266" y="403"/>
      <point x="283" y="404"/>
    </contour>
  </outline>
</glyph>
<glyph name="s" format="1">
  <advance width="333"/>
  <unicode hex="0073"/>
  <outline>
    <contour>
      <point x="258" y="104" type="curve" smooth="yes"/>
      <point x="258" y="45"/>
      <point x="227" y="4"/>
      <point x="177" y="4" type="curve" smooth="yes"/>
      <point x="113" y="4"/>
      <point x="79" y="59"/>
      <point x="85" y="156" type="curve"/>
      <point x="20" y="149" type="line"/>
      <point x="20" y="31"/>
      <point x="85" y="-40"/>
      <point x="172" y="-40" type="curve" smooth="yes"/>
      <point x="256" y="-40"/>
      <point x="313" y="27"/>
      <point x="313" y="115" type="curve" smooth="yes"/>
      <point x="313" y="276"/>
      <point x="94" y="283"/>
      <point x="94" y="433" type="curve" smooth="yes"/>
      <point x="94" y="485"/>
      <point x="122" y="513"/>
      <point x="164" y="513" type="curve"/>
      <point x="216" y="513"/>
      <point x="242" y="476"/>
      <point x="253" y="396" type="curve"/>
      <point x="298" y="408" type="line"/>
      <point x="282" y="503"/>
      <point x="248" y="557"/>
      <point x="166" y="557" type="curve" smooth="yes"/>
      <point x="83" y="557"/>
      <point x="39" y="504"/>
      <point x="39" y="427" type="curve" smooth="yes"/>
      <point x="39" y="256"/>
      <point x="258" y="248"/>
    </contour>
  </outline>
</glyph>
<glyph name="t" format="1">
  <advance width="340"/>
  <unicode hex="0074"/>
  <outline>
    <contour>
      <point x="193" y="11" type="curve" smooth="yes"/>
      <point x="258" y="11"/>
      <point x="299" y="78"/>
      <point x="303" y="191" type="curve"/>
      <point x="290" y="198"/>
      <point x="273" y="202"/>
      <point x="258" y="203" type="curve"/>
      <point x="256" y="98"/>
      <point x="237" y="56"/>
      <point x="198" y="56" type="curve" smooth="yes"/>
      <point x="153" y="56"/>
      <point x="131" y="138"/>
      <point x="131" y="276" type="curve" smooth="yes"/>
      <point x="131" y="386"/>
      <point x="152" y="501"/>
      <point x="187" y="611" type="curve"/>
      <point x="167" y="617"/>
      <point x="151" y="621"/>
      <point x="128" y="623" type="curve"/>
      <point x="97" y="496"/>
      <point x="81" y="394"/>
      <point x="81" y="285" type="curve" smooth="yes"/>
      <point x="81" y="112"/>
      <point x="112" y="11"/>
    </contour>
    <contour>
      <point x="28" y="501" type="curve"/>
      <point x="23" y="488"/>
      <point x="19" y="474"/>
      <point x="18" y="459" type="curve"/>
      <point x="96" y="444"/>
      <point x="190" y="441"/>
      <point x="300" y="451" type="curve"/>
      <point x="304" y="464"/>
      <point x="307" y="478"/>
      <point x="307" y="491" type="curve"/>
      <point x="193" y="481"/>
      <point x="110" y="484"/>
    </contour>
  </outline>
</glyph>
<glyph name="w" format="1">
  <advance width="611"/>
  <unicode hex="0077"/>
  <outline>
    <contour>
      <point x="302" y="461" type="curve"/>
      <point x="342" y="355"/>
      <point x="383" y="199"/>
      <point x="406" y="13" type="curve"/>
      <point x="388" y="18" type="line"/>
      <point x="475" y="210"/>
      <point x="520" y="372"/>
      <point x="537" y="492" type="curve"/>
      <point x="556" y="489"/>
      <point x="576" y="479"/>
      <point x="591" y="470" type="curve"/>
      <point x="544" y="273"/>
      <point x="509" y="170"/>
      <point x="411" y="-28" type="curve"/>
      <point x="401" y="-31"/>
      <point x="381" y="-35"/>
      <point x="368" y="-35" type="curve"/>
      <point x="340" y="153"/>
      <point x="311" y="275"/>
      <point x="264" y="406" type="curve"/>
      <point x="301" y="408" type="line"/>
      <point x="266" y="261"/>
      <point x="240" y="171"/>
      <point x="173" y="19" type="curve"/>
      <point x="163" y="16"/>
      <point x="144" y="11"/>
      <point x="126" y="10" type="curve"/>
      <point x="56" y="195"/>
      <point x="22" y="348"/>
      <point x="5" y="536" type="curve"/>
      <point x="20" y="543"/>
      <point x="36" y="546"/>
      <point x="55" y="547" type="curve"/>
      <point x="77" y="311"/>
      <point x="113" y="175"/>
      <point x="164" y="39" type="curve"/>
      <point x="132" y="35" type="line"/>
      <point x="199" y="175"/>
      <point x="234" y="299"/>
      <point x="258" y="454" type="curve"/>
      <point x="270" y="458"/>
      <point x="284" y="461"/>
    </contour>
  </outline>
</glyph>
<glyph name="x" format="1">
  <advance width="449"/>
  <unicode hex="0078"/>
  <outline>
    <contour>
      <point x="336" y="215"/>
      <point x="249" y="365"/>
      <point x="126" y="552" type="curve"/>
      <point x="104" y="544"/>
      <point x="84" y="532"/>
      <point x="64" y="518" type="curve"/>
      <point x="184" y="370"/>
      <point x="297" y="185"/>
      <point x="386" y="-23" type="curve"/>
      <point x="399" y="-19"/>
      <point x="416" y="-8"/>
      <point x="429" y="2" type="curve"/>
    </contour>
    <contour>
      <point x="429" y="500" type="curve"/>
      <point x="414" y="517"/>
      <point x="408" y="529"/>
      <point x="388" y="543" type="curve"/>
      <point x="344" y="466"/>
      <point x="295" y="390"/>
      <point x="242" y="318" type="curve"/>
      <point x="227" y="304" type="line"/>
      <point x="153" y="206"/>
      <point x="73" y="116"/>
      <point x="-10" y="37" type="curve"/>
      <point x="-1" y="25"/>
      <point x="10" y="14"/>
      <point x="24" y="5" type="curve"/>
      <point x="117" y="98"/>
      <point x="187" y="176"/>
      <point x="254" y="263" type="curve"/>
      <point x="270" y="277" type="line"/>
      <point x="320" y="343"/>
      <point x="370" y="413"/>
    </contour>
  </outline>
</glyph>
<glyph name="y" format="1">
  <advance width="392"/>
  <unicode hex="0079"/>
  <outline>
    <contour>
      <point x="5" y="474" type="curve"/>
      <point x="38" y="303"/>
      <point x="78" y="205"/>
      <point x="172" y="52" type="curve"/>
      <point x="198" y="96" type="line"/>
      <point x="123" y="220"/>
      <point x="86" y="328"/>
      <point x="62" y="491" type="curve"/>
      <point x="41" y="488"/>
      <point x="24" y="481"/>
    </contour>
    <contour>
      <point x="317" y="531" type="curve"/>
      <point x="234" y="237"/>
      <point x="181" y="109"/>
      <point x="13" y="-187" type="curve"/>
      <point x="26" y="-195"/>
      <point x="34" y="-201"/>
      <point x="51" y="-206" type="curve"/>
      <point x="229" y="98"/>
      <point x="281" y="233"/>
      <point x="372" y="508" type="curve"/>
      <point x="352" y="517"/>
      <point x="337" y="526"/>
    </contour>
  </outline>
</glyph>
<glyph name="z" format="1">
  <advance width="406"/>
  <unicode hex="007A"/>
  <outline>
    <contour>
      <point x="359" y="443" type="curve"/>
      <point x="343" y="466" type="line"/>
      <point x="216" y="335"/>
      <point x="122" y="216"/>
      <point x="10" y="63" type="curve"/>
      <point x="8" y="50"/>
      <point x="8" y="38"/>
      <point x="9" y="21" type="curve"/>
      <point x="102" y="0"/>
      <point x="189" y="-13"/>
      <point x="344" y="-14" type="curve"/>
      <point x="351" y="3"/>
      <point x="358" y="18"/>
      <point x="359" y="37" type="curve"/>
      <point x="218" y="31"/>
      <point x="132" y="42"/>
      <point x="27" y="59" type="curve"/>
      <point x="41" y="33" type="line"/>
      <point x="165" y="200"/>
      <point x="248" y="302"/>
      <point x="377" y="438" type="curve"/>
      <point x="383" y="478" type="line"/>
      <point x="264" y="512"/>
      <point x="194" y="526"/>
      <point x="71" y="537" type="curve"/>
      <point x="65" y="519"/>
      <point x="63" y="512"/>
      <point x="60" y="489" type="curve"/>
      <point x="175" y="478"/>
      <point x="237" y="469"/>
    </contour>
  </outline>
</glyph>
<glyph name="cent" format="1">
  <advance width="411"/>
  <unicode hex="00A2"/>
  <outline>
    <contour>
      <point x="319" y="428" type="curve"/>
      <point x="342" y="428"/>
      <point x="361" y="433"/>
      <point x="378" y="441" type="curve"/>
      <point x="378" y="549"/>
      <point x="332" y="614"/>
      <point x="243" y="614" type="curve" smooth="yes"/>
      <point x="123" y="614"/>
      <point x="40" y="465"/>
      <point x="40" y="271" type="curve" smooth="yes"/>
      <point x="40" y="152"/>
      <point x="80" y="47"/>
      <point x="199" y="47" type="curve" smooth="yes"/>
      <point x="284" y="47"/>
      <point x="362" y="122"/>
      <point x="381" y="194" type="curve"/>
      <point x="376" y="204"/>
      <point x="355" y="217"/>
      <point x="338" y="219" type="curve"/>
      <point x="306" y="143"/>
      <point x="264" y="92"/>
      <point x="207" y="92" type="curve" smooth="yes"/>
      <point x="126" y="92"/>
      <point x="94" y="176"/>
      <point x="94" y="276" type="curve" smooth="yes"/>
      <point x="94" y="419"/>
      <point x="155" y="569"/>
      <point x="240" y="569" type="curve" smooth="yes"/>
      <point x="298" y="569"/>
      <point x="319" y="511"/>
    </contour>
    <contour>
      <point x="325" y="524" type="line"/>
      <point x="341" y="582"/>
      <point x="367" y="635"/>
      <point x="391" y="680" type="curve"/>
      <point x="371" y="691"/>
      <point x="359" y="695"/>
      <point x="345" y="695" type="curve"/>
      <point x="326" y="660"/>
      <point x="310" y="612"/>
      <point x="294" y="557" type="curve"/>
    </contour>
    <contour>
      <point x="151" y="97" type="curve"/>
      <point x="115" y="131" type="line"/>
      <point x="97" y="66"/>
      <point x="73" y="16"/>
      <point x="46" y="-34" type="curve"/>
      <point x="65" y="-45"/>
      <point x="82" y="-47"/>
      <point x="95" y="-47" type="curve"/>
      <point x="116" y="-6"/>
      <point x="138" y="43"/>
    </contour>
  </outline>
</glyph>
<glyph name="yen" format="1">
  <advance width="456"/>
  <unicode hex="00A5"/>
  <outline>
    <contour>
      <point x="186" y="-47" type="curve"/>
      <point x="199" y="-47"/>
      <point x="214" y="-46"/>
      <point x="231" y="-43" type="curve"/>
      <point x="248" y="113"/>
      <point x="246" y="217"/>
      <point x="244" y="324" type="curve"/>
      <point x="193" y="317" type="line"/>
      <point x="199" y="193"/>
      <point x="197" y="103"/>
    </contour>
    <contour>
      <point x="402" y="217" type="curve" smooth="yes"/>
      <point x="403" y="224"/>
      <point x="404" y="230"/>
      <point x="404" y="237" type="curve"/>
      <point x="260" y="223"/>
      <point x="184" y="222"/>
      <point x="62" y="236" type="curve"/>
      <point x="58" y="223"/>
      <point x="58" y="209"/>
      <point x="58" y="194" type="curve"/>
      <point x="184" y="181"/>
      <point x="265" y="184"/>
      <point x="397" y="197" type="curve"/>
      <point x="399" y="203"/>
      <point x="401" y="210"/>
    </contour>
    <contour>
      <point x="240" y="281" type="line"/>
      <point x="288" y="282"/>
      <point x="337" y="286"/>
      <point x="397" y="292" type="curve"/>
      <point x="399" y="299"/>
      <point x="401" y="306"/>
      <point x="402" y="313" type="curve" smooth="yes"/>
      <point x="403" y="319"/>
      <point x="404" y="326"/>
      <point x="404" y="332" type="curve"/>
      <point x="338" y="326"/>
      <point x="287" y="322"/>
      <point x="238" y="321" type="curve"/>
    </contour>
    <contour>
      <point x="58" y="289" type="curve"/>
      <point x="111" y="284"/>
      <point x="156" y="281"/>
      <point x="200" y="281" type="curve"/>
      <point x="199" y="321" type="line"/>
      <point x="156" y="322"/>
      <point x="113" y="325"/>
      <point x="62" y="331" type="curve"/>
      <point x="58" y="318"/>
      <point x="58" y="304"/>
    </contour>
    <contour>
      <point x="205" y="265" type="curve"/>
      <point x="215" y="271"/>
      <point x="224" y="277"/>
      <point x="237" y="287" type="curve"/>
      <point x="198" y="403"/>
      <point x="157" y="501"/>
      <point x="124" y="566" type="curve" smooth="yes"/>
      <point x="100" y="613"/>
      <point x="86" y="633"/>
      <point x="53" y="682" type="curve"/>
      <point x="44" y="678"/>
      <point x="35" y="674"/>
      <point x="28" y="670" type="curve" smooth="yes"/>
      <point x="21" y="666"/>
      <point x="15" y="662"/>
      <point x="10" y="657" type="curve"/>
      <point x="85" y="546"/>
      <point x="138" y="443"/>
    </contour>
    <contour>
      <point x="384" y="678" type="curve"/>
      <point x="339" y="538"/>
      <point x="294" y="441"/>
      <point x="202" y="294" type="curve"/>
      <point x="213" y="289"/>
      <point x="223" y="286"/>
      <point x="239" y="283" type="curve"/>
      <point x="347" y="455"/>
      <point x="392" y="550"/>
      <point x="426" y="661" type="curve"/>
      <point x="410" y="671"/>
      <point x="400" y="677"/>
    </contour>
  </outline>
</glyph>
<glyph name="brokenbar" format="1">
  <advance width="268.0"/>
  <unicode hex="00A6"/>
  <outline>
    <contour>
      <point x="156" y="376" type="curve"/>
      <point x="156" y="501"/>
      <point x="158.0" y="624.0"/>
      <point x="163.0" y="725.0" type="curve"/>
      <point x="137.0" y="727.0"/>
      <point x="114.0" y="721.0"/>
      <point x="100.0" y="714.0" type="curve"/>
      <point x="100.0" y="603.0"/>
      <point x="100" y="488"/>
      <point x="102" y="371" type="curve"/>
      <point x="121" y="370"/>
      <point x="139" y="371"/>
    </contour>
    <contour>
      <point x="120.0" y="-171.0" type="curve"/>
      <point x="133.0" y="-171.0"/>
      <point x="158.0" y="-168.0"/>
      <point x="168.0" y="-165.0" type="curve"/>
      <point x="164.0" y="-69.0"/>
      <point x="159" y="71"/>
      <point x="157" y="221" type="curve"/>
      <point x="139" y="224"/>
      <point x="121" y="225"/>
      <point x="105" y="222" type="curve"/>
      <point x="108" y="86"/>
      <point x="113.0" y="-47.0"/>
    </contour>
  </outline>
</glyph>
<glyph name="circumflex" format="1">
  <advance width="260"/>
  <unicode hex="02C6"/>
  <outline>
    <contour>
      <point x="196" y="703"/>
      <point x="233" y="665"/>
      <point x="271" y="633" type="curve"/>
      <point x="257" y="612"/>
      <point x="232" y="585"/>
      <point x="190" y="570" type="curve"/>
      <point x="148" y="613"/>
      <point x="131" y="634"/>
      <point x="97" y="684" type="curve"/>
      <point x="144" y="684" type="line"/>
      <point x="118" y="642"/>
      <point x="94" y="610"/>
      <point x="52" y="567" type="curve"/>
      <point x="10" y="582"/>
      <point x="-17" y="611"/>
      <point x="-28" y="626" type="curve"/>
      <point x="17" y="667"/>
      <point x="46" y="704"/>
      <point x="67" y="745" type="curve"/>
      <point x="82" y="748"/>
      <point x="97" y="749"/>
      <point x="113" y="749" type="curve" smooth="yes"/>
      <point x="134" y="749"/>
      <point x="151" y="748"/>
      <point x="175" y="744" type="curve"/>
    </contour>
    <contour>
      <point x="120.0" y="560.0" type="move" name="_top"/>
    </contour>
  </outline>
</glyph>
<glyph name="caron" format="1">
  <advance width="260"/>
  <unicode hex="02C7"/>
  <outline>
    <component base="circumflex" xScale="-1" yScale="-1" xOffset="251" yOffset="1317"/>
    <contour>
      <point x="129.0" y="560.0" type="move" name="_top"/>
    </contour>
  </outline>
</glyph>
<glyph name="breve" format="1">
  <advance width="260"/>
  <unicode hex="02D8"/>
  <outline>
    <contour>
      <point x="32" y="740"/>
      <point x="11" y="735"/>
      <point x="-6" y="729" type="curve"/>
      <point x="-8" y="683"/>
      <point x="0" y="651"/>
      <point x="16" y="631" type="curve" smooth="yes"/>
      <point x="42" y="599"/>
      <point x="81" y="587"/>
      <point x="127" y="587" type="curve" smooth="yes"/>
      <point x="182" y="587"/>
      <point x="231" y="610"/>
      <point x="252" y="654" type="curve" smooth="yes"/>
      <point x="265" y="681"/>
      <point x="268" y="704"/>
      <point x="267" y="738" type="curve"/>
      <point x="242" y="743"/>
      <point x="206" y="742"/>
      <point x="185" y="737" type="curve"/>
      <point x="195" y="698"/>
      <point x="180" y="675"/>
      <point x="128" y="675" type="curve" smooth="yes"/>
      <point x="76" y="675"/>
      <point x="67" y="701"/>
      <point x="71" y="740" type="curve"/>
    </contour>
    <contour>
      <point x="130.0" y="560.0" type="move" name="_top"/>
    </contour>
  </outline>
</glyph>
<glyph name="bn_matra.e" format="1">
  <advance width="418"/>
  <unicode hex="09C7"/>
  <outline>
    <contour>
      <point x="369" y="5"/>
      <point x="390.0" y="64.0"/>
      <point x="390" y="152" type="curve"/>
      <point x="257" y="158"/>
      <point x="211.0" y="246.968325792"/>
      <point x="211" y="350" type="curve" smooth="yes"/>
      <point x="211" y="457"/>
      <point x="257" y="587"/>
      <point x="351" y="669" type="curve"/>
      <point x="132" y="684" type="line"/>
      <point x="42" y="596"/>
      <point x="6.0" y="464.0"/>
      <point x="6" y="362" type="curve" smooth="yes"/>
      <point x="6.0" y="160.0"/>
      <point x="120" y="-10"/>
      <point x="330" y="-59" type="curve"/>
    </contour>
    <contour>
      <point x="73.5810238648" y="597.376283532"/>
      <point x="159.811320755" y="600.0"/>
      <point x="242" y="600" type="curve" smooth="yes"/>
      <point x="305.223300971" y="600.0"/>
      <point x="365.880800774" y="593.504413088"/>
      <point x="418" y="577" type="curve"/>
      <point x="425" y="604"/>
      <point x="428" y="629"/>
      <point x="428" y="656" type="curve" smooth="yes"/>
      <point x="428" y="680"/>
      <point x="423.817827518" y="694.873648454"/>
      <point x="418" y="710" type="curve"/>
      <point x="364" y="732"/>
      <point x="284" y="743"/>
      <point x="202" y="743" type="curve" smooth="yes"/>
      <point x="133" y="743"/>
      <point x="61" y="736"/>
      <point x="0" y="710" type="curve"/>
      <point x="-6" y="698"/>
      <point x="-10" y="675"/>
      <point x="-10" y="652" type="curve" smooth="yes"/>
      <point x="-10" y="627"/>
      <point x="-8" y="605"/>
      <point x="0" y="577" type="curve"/>
    </contour>
  </outline>
</glyph>
<glyph name="quoteleft" format="1">
  <advance width="99"/>
  <unicode hex="2018"/>
  <outline>
    <contour>
      <point x="-5" y="734" type="curve"/>
      <point x="-5" y="654"/>
      <point x="10" y="579"/>
      <point x="42" y="488" type="curve"/>
      <point x="54" y="487"/>
      <point x="65" y="487"/>
      <point x="79" y="489" type="curve"/>
      <point x="50" y="604"/>
      <point x="49" y="678"/>
      <point x="52" y="741" type="curve"/>
      <point x="30" y="742"/>
      <point x="12" y="739"/>
    </contour>
  </outline>
</glyph>
<glyph name="bn_kha" format="1">
  <advance width="960"/>
  <outline>
    <contour>
      <point x="583" y="634"/>
      <point x="669" y="577"/>
      <point x="960" y="577" type="curve"/>
      <point x="967" y="602"/>
      <point x="970" y="636"/>
      <point x="970" y="655" type="curve" smooth="yes"/>
      <point x="970" y="681"/>
      <point x="966" y="697"/>
      <point x="960" y="710" type="curve"/>
      <point x="809" y="710"/>
      <point x="775" y="774"/>
      <point x="748" y="829" type="curve"/>
      <point x="677" y="813"/>
      <point x="596" y="758"/>
      <point x="558" y="710" type="curve"/>
    </contour>
    <contour>
      <point x="659.991796089" y="481.031995251"/>
      <point x="688" y="197"/>
      <point x="688" y="-98" type="curve"/>
      <point x="741" y="-106"/>
      <point x="812" y="-110"/>
      <point x="855" y="-107" type="curve"/>
      <point x="855" y="155"/>
      <point x="843.845055418" y="483.279266403"/>
      <point x="821" y="692" type="curve"/>
      <point x="755" y="723"/>
      <point x="684" y="715"/>
      <point x="600" y="715" type="curve"/>
    </contour>
    <contour>
      <point x="141" y="554"/>
      <point x="128" y="567"/>
      <point x="128" y="588" type="curve" smooth="yes"/>
      <point x="128" y="632"/>
      <point x="174" y="660"/>
      <point x="213" y="660" type="curve"/>
      <point x="199" y="722"/>
      <point x="163" y="788"/>
      <point x="125" y="816" type="curve"/>
      <point x="70" y="802"/>
      <point x="0" y="740"/>
      <point x="0" y="641" type="curve" smooth="yes"/>
      <point x="0.0" y="546.32780083"/>
      <point x="74" y="393"/>
      <point x="195" y="393" type="curve" smooth="yes"/>
      <point x="276" y="393"/>
      <point x="359.719769589" y="468.470109768"/>
      <point x="415" y="573" type="curve"/>
      <point x="425" y="564"/>
      <point x="434" y="550"/>
      <point x="434" y="521" type="curve" smooth="yes"/>
      <point x="434" y="425"/>
      <point x="340" y="382"/>
      <point x="197" y="345" type="curve"/>
      <point x="197" y="286"/>
      <point x="231.216235289" y="230.871588243"/>
      <point x="262" y="177" type="curve"/>
      <point x="437.328072456" y="154.958756605"/>
      <point x="635" y="82"/>
      <point x="701" y="-68" type="curve"/>
      <point x="737" y="21" type="line"/>
      <point x="690.1233427" y="172.372539199"/>
      <point x="549" y="265"/>
      <point x="421" y="312" type="curve"/>
      <point x="371" y="235" type="line"/>
      <point x="479" y="278"/>
      <point x="571.0" y="397.269503546"/>
      <point x="571" y="521" type="curve" smooth="yes"/>
      <point x="571" y="657"/>
      <point x="459.312615189" y="735.534257979"/>
      <point x="386" y="782" type="curve"/>
      <point x="293" y="652"/>
      <point x="217" y="554"/>
      <point x="160" y="554" type="curve" smooth="yes"/>
    </contour>
  </outline>
</glyph>
